<?xml version="1.0" standalone="no"?>
<!DOCTYPE svg PUBLIC "-//W3C//DTD SVG 1.1//EN" "http://www.w3.org/Graphics/SVG/1.1/DTD/svg11.dtd" >
<!--
2013-9-30: Created.
-->
<svg>
<metadata>
Created by iconfont
</metadata>
<defs>

<font id="iconfont" horiz-adv-x="1024" >
  <font-face
    font-family="iconfont"
    font-weight="500"
    font-stretch="normal"
    units-per-em="1024"
    ascent="896"
    descent="-128"
  />
    <missing-glyph />
    
<<<<<<< HEAD
<<<<<<< HEAD
    <glyph glyph-name="yijianfankui" unicode="&#58991;" d="M352.682993 659.246855l348.652701 0c13.839193 0 25.028023 11.210319 25.028023 25.016767 0 13.805424-11.18883 25.015743-25.028023 25.015743L352.682993 709.279365c-13.827937 0-25.010627-11.210319-25.010627-25.015743C327.671343 670.457174 338.855056 659.246855 352.682993 659.246855L352.682993 659.246855zM352.682993 520.202055l248.493537 0c13.818727 0 24.952298 11.210319 24.952298 25.02086 0 13.805424-11.124362 24.994254-24.952298 24.994254L352.682993 570.217169c-13.827937 0-25.010627-11.18883-25.010627-24.994254C327.671343 531.412374 338.855056 520.202055 352.682993 520.202055L352.682993 520.202055zM920.874783 591.863165l-62.697971 37.439704L858.176812 822.82235c0 14.363126-11.32493 26.02063-25.287943 26.02063L221.16768 848.84298c-13.964036 0-25.305339-11.636015-25.305339-26.02063l0-193.540971-62.715367-37.434587L83.15335 566.106548l0-29.710672 0-2.710738 0-554.815131 0 0c0-3.523243 0.703011-6.894014 1.979074-9.942443 0.097214-0.264013 0.25071-0.459464 0.369414-0.73985 0.676405-1.472538 1.493004-2.928702 2.460028-4.307096 4.383844-6.230911 11.32493-10.283204 19.296485-10.571776 0.310062 0 0.599657-0.110517 0.910743-0.110517l837.696874 0c13.827937 0 24.99937 11.517311 24.99937 25.671683L970.865337 532.910495l0 2.706645 0 28.092825L920.874783 591.863165 920.874783 591.863165zM858.176812 577.300494l58.970066-34.272571-58.970066-34.242895L858.176812 577.300494 858.176812 577.300494zM262.083555 798.849356l529.850553 0c12.42703 0 16.269545-3.800559 16.269545-16.193821l0-302.918078L527.01753 316.37481 245.855966 479.737458 245.855966 782.638139C245.872339 795.048797 249.695411 798.849356 262.083555 798.849356L262.083555 798.849356zM195.861318 508.805494l-58.97416 34.246989 58.97416 34.263361L195.861318 508.805494 195.861318 508.805494zM920.874783 4.627646 133.163347 4.627646 133.163347 477.444229l381.26854-227.533157c0.348947-0.298805 0.774643-0.401136 1.162476-0.579191 0.561795-0.315178 1.106194-0.51984 1.667989-0.774643 0.932232-0.416486 1.859347-0.782829 2.813069-1.098008 0.62217-0.160659 1.220804-0.264013 1.860371-0.416486 0.910743-0.195451 1.825578-0.358157 2.774183-0.443092 0.775666-0.033769 1.554402-0.033769 2.328022-0.033769 0.778736 0 1.553379 0 2.332115 0.033769 0.927115 0.102331 1.833765 0.264013 2.765997 0.443092 0.618077 0.179079 1.238201 0.280386 1.863441 0.416486 0.949628 0.316202 1.88186 0.681522 2.830465 1.098008 0.561795 0.254803 1.111311 0.459464 1.664919 0.774643 0.38681 0.196475 0.795109 0.297782 1.166569 0.579191l381.25012 227.533157 0-472.816582L920.874783 4.627646z"  horiz-adv-x="1024" />

    
    <glyph glyph-name="huifu" unicode="&#58940;" d="M434.179099 605.25415c0.460488 0 0.661056-0.701988 0.660032-2.473331l0.030699-0.002047s-0.030699-66.912969 0.01842-67.88818c1.118474-32.364105 25.544793-59.232033 56.899918-62.543451l0.196474-0.02149c80.164784-7.610328 150.936641-39.972387 210.352869-96.185666 42.732244-40.428781 79.163991-92.449575 108.37222-154.73106 0.942465-2.00875 0.64366-5.034666-1.454118-5.034667-0.822738 0-1.922792 0.465604-3.332909 1.641383-62.420655 52.004421-182.216042 91.489714-307.21801 94.098122l-0.004093-0.052189c-34.07098-0.245593-62.602803-28.336372-63.815421-62.883189-0.051165-0.967024-0.025583-63.09706-0.01842-84.131119 0-1.534959-0.134053-2.302439-0.645706-2.302439-0.483001 0-1.305739 0.683569-2.670829 2.050706-52.270481 52.290947-212.9316 205.237361-212.9316 205.237361-3.745301 4.842285-5.802146 10.958586-5.802147 17.334807 0 7.471159 2.762927 14.421454 7.789407 19.630083l0.031723 0.017396S380.981503 552.521135 431.99741 603.549322c1.019213 1.017166 1.728364 1.704828 2.181689 1.704828m-0.02149 49.118697c-13.808494-0.00614-26.222221-5.4225-36.899398-16.09763-47.924499-47.936779-197.520609-183.89017-208.949916-194.270588a48.492434 48.492434 0 0 1-3.048429-2.899027c-13.906731-14.410198-21.565155-33.493835-21.565155-53.738925 0-17.162892 5.705955-33.990139 16.067954-47.387263a49.051159 49.051159 0 0 1 4.984524-5.523807c1.602498-1.524726 160.817686-153.122423 212.059744-204.384947 10.906397-10.910491 23.494087-16.442484 37.412075-16.442484 22.714328 0 42.504046 15.465227 48.124043 37.610596 1.470491 5.791913 1.64036 10.656711 1.64036 13.82896l-0.001023 1.656733c-0.007163 18.565844-0.026606 73.814146 0.008186 81.136925 0.499373 8.026814 7.442506 15.028275 15.061021 15.083533 0.274246 0.002047 0.548492 0.00614 0.822738 0.01228 124.785028-3.048429 227.724515-43.618427 274.606265-82.678024 12.918217-10.763135 26.040073-13.021571 34.773991-13.021572 17.503653 0 33.561373 8.821923 42.953278 23.598465 9.612938 15.121396 10.751878 34.82004 2.972705 51.408856-31.82073 67.854411-71.886237 124.901685-119.086236 169.556721-33.497928 31.692816-70.751391 57.029878-110.726847 75.309196-39.9642 18.273179-83.173304 29.736255-128.426975 34.065864-6.872524 0.728594-12.488429 7.265474-12.942776 14.976086-0.024559 5.802146-0.01842 43.281759-0.007164 66.584488a49.514717 49.514717 0 0 1-0.130983 3.626597c-0.218988 3.904936-0.801249 7.575536-1.766226 11.136641-5.874801 21.698185-25.578562 36.853349-47.913243 36.85335l-0.022513-0.001024z"  horiz-adv-x="1024" />

    
    <glyph glyph-name="gengduo" unicode="&#58892;" d="M128 863.168h768v-62.656H128zM128 415.168h768v-62.656H128zM128-32.512h768v-62.656H128z"  horiz-adv-x="1024" />

    
    <glyph glyph-name="xiezi" unicode="&#58913;" d="M919.424 734.608a30.704 30.704 0 0 1-35.32-18.216c-5.864-4.144-27.592-11.704-64.712-11.704-38.192 0-63.096 8.144-69.68 13.16a30.68 30.68 0 0 1-28.976 20.528h-41.064c-73.456 0-124.336-61.712-135.288-131.808l-30.848-143.592-360.328-76.296C60.136 371.624 0 309.72 0 228.96v-168.696a30.648 30.648 0 0 1 30.656-30.648h962.696a30.632 30.632 0 0 1 30.648 30.648V603.12c0 63.024-42.976 117.088-104.576 131.488z m43.28-643.696H61.304V228.96c0 59.56 52.528 89.256 103.144 97.456l21.984 4.672 35.704-52.68a30.56 30.56 0 0 1 25.4-13.408 30.64 30.64 0 0 1 25.336 47.824L251.216 344.8l65.776 13.928 39.24-57.928a30.624 30.624 0 0 1 42.568-8.208 30.64 30.64 0 0 1 8.168 42.56l-25.248 37.28 61.344 12.96c0.192-0.304 0.192-0.664 0.4-0.96l46.84-69.16a30.52 30.52 0 0 1 25.416-13.472 30.648 30.648 0 0 1 25.344 47.824l-33.496 49.432 38.12 8.056a30.624 30.624 0 0 1 23.584 23.552l35.68 166c0.48 2.112 22.712 81.984 74.712 80.392h24c28.856-30.856 93.392-33.688 115.72-33.688 24.488 0 74.472 2.984 103.144 25.296a73.416 73.416 0 0 0 40.168-65.568v-512.184z"  horiz-adv-x="1024" />

    
    <glyph glyph-name="erji" unicode="&#58888;" d="M999.437049 290.807316V414.669657c0 64.947508-12.707121 127.969694-37.864654 187.397947-24.259049 57.374577-58.914834 108.844835-103.197225 152.998872-44.154037 44.154037-95.624295 78.938176-152.998872 103.197225C646.0764 883.292879 583.054213 896 518.106706 896H505.784649c-64.947508 0-127.969694-12.707121-187.397947-37.864654-57.374577-24.259049-108.844835-58.914834-152.998871-103.197225-44.154037-44.154037-78.809821-95.624295-103.068871-152.870517C37.161427 542.639351 24.454306 479.617165 24.454306 414.669657v-351.948747c0-40.303394 32.858818-73.162212 73.162212-73.162212h71.621955c40.303394 0 73.162212 32.858818 73.162212 73.162212v227.187922c0 40.303394-32.858818 73.162212-73.162212 73.162212H97.616518c-3.978998 0-7.82964-0.25671-11.551928-0.898483V414.669657C86.06459 646.093286 274.36102 834.389716 505.784649 834.389716h12.322057c231.423629 0 419.720059-188.29643 419.720059-419.720059v-52.497096c-3.722288 0.641774-7.572931 0.898483-11.551928 0.898483h-71.621955c-40.303394 0-73.162212-32.858818-73.162213-73.162212v-227.187922c0-24.130695 11.808638-45.694294 29.906659-58.914834-59.043189-24.900823-132.975529-55.449256-160.956867-64.819152-12.963831-4.364062-35.939332-7.059512-60.326736-8.728124-6.674447 12.450412-19.766633 20.921826-34.784139 20.921826H476.263055c-21.820309 0-39.533265-17.712957-39.533266-39.533266s17.712957-39.533265 39.533266-39.533265h19.509923s16.814473-0.25671 40.431749 0h19.124859c2.053676 0 3.978998 0.128355 5.904319 0.385064 41.073523 1.026838 90.233395 3.850643 112.952187 11.166864 39.533265 12.707121 159.544964 69.568279 234.889207 105.76432h17.199538c40.303394 0 73.162212 32.858818 73.162212 73.162213v227.187921 1.026839zM97.616518 301.46076h71.621955c6.417738 0 11.551928-5.13419 11.551929-11.551928v-227.187922c0-6.417738-5.13419-11.551928-11.551929-11.551928H97.616518c-6.417738 0-11.551928 5.13419-11.551928 11.551928v227.187922c0 6.289383 5.13419 11.551928 11.551928 11.551928z m745.484435-11.551928c0 6.417738 5.13419 11.551928 11.551929 11.551928h71.621955c6.161028 0 11.295219-4.877481 11.551928-11.038509v-227.701341c0-6.417738-5.13419-11.551928-11.551928-11.551928h-71.621955c-6.417738 0-11.551928 5.13419-11.551929 11.551928v227.187922z"  horiz-adv-x="1024" />

    
    <glyph glyph-name="shequ" unicode="&#58914;" d="M892.416 286.72h126.976v-63.488h-126.976V286.72z m63.488 507.392h63.488V286.72h-63.488V794.112z m-380.416-317.44h126.976v-126.976h-126.976V476.672zM163.328 857.088h856.064V793.6h-824.32v-63.488H131.584V857.088h31.744z m221.696-380.416H512v-126.976H385.024V476.672z m-189.952 0h126.976v-126.976H195.072V476.672z m177.664-380.416l-241.152-190.464v190.464H4.608V730.624h887.808v-634.368H372.736z m-25.6 63.488h481.792V667.136H68.096v-507.392h126.976v-120.32l152.064 120.32z"  horiz-adv-x="1024" />

    
    <glyph glyph-name="dianzan" unicode="&#58941;" d="M819.2 502.4h-249.6c-9.6 0-6.4 6.4 9.6 48 16 35.2 22.4 60.8 22.4 96 3.2 76.8-38.4 169.6-96 166.4-99.2-3.2-89.6-67.2-105.6-140.8-16-64-38.4-134.4-86.4-169.6-44.8-19.2-6.4-22.4-166.4-22.4-28.8 0-48-19.2-48-48v-435.2c0-28.8 9.6-41.6 41.6-41.6h112c19.2 0 38.4 16 38.4 38.4V438.4c16 6.4 38.4 12.8 48 16 44.8 35.2 67.2 76.8 96 144 28.8 67.2 3.2 160 70.4 166.4 22.4 3.2 57.6-64 48-118.4-19.2-112-41.6-102.4-48-144 0-22.4 22.4-48 48-48h262.4c35.2 0 51.2-32 48-48-3.2-9.6-96-380.8-96-380.8-6.4-16-9.6-22.4-22.4-22.4h-307.2c-12.8 0-22.4-9.6-22.4-22.4 0-12.8 9.6-22.4 22.4-22.4h304c3.2 0 28.8 3.2 44.8 12.8 25.6 16 32 35.2 32 35.2l96 406.4c-3.2 25.6-25.6 89.6-96 89.6zM246.4 0h-96V428.8h96V0z"  horiz-adv-x="1024" />

    
    <glyph glyph-name="fabu" unicode="&#58880;" d="M317.78133333 16.49777777999998H100.80711111c-22.64177778 0-41.07377778 18.54577778-41.07377778 41.41511111v698.59555556c0 22.86933333 18.54577778 41.41511111 41.52888889 41.4151111h698.59555556c22.86933333 0 41.52888889-18.54577778 41.52888889-41.07377777V594.48888889c0-15.81511111 12.85688889-28.55822222 28.55822222-28.55822222 15.81511111 0 28.55822222 12.85688889 28.55822222 28.55822222V756.8497777800001c0 54.15822222-44.25955555 98.19022222-98.64533333 98.19022222H101.14844445c-54.49955555 0-98.64533333-44.14577778-98.64533334-98.64533333v-698.48177778c0-54.49955555 43.91822222-98.64533333 98.304-98.64533334h216.97422222c15.81511111 0 28.55822222 12.74311111 28.55822222 28.55822223 0 15.92888889-12.74311111 28.672-28.55822222 28.672z m552.16355556 69.85955555c-15.81511111 0-28.55822222-12.85688889-28.55822222-28.55822222 0-22.86933333-18.432-41.30133333-41.41511112-41.30133333H797.58222222c-15.81511111 0-28.55822222-12.74311111-28.55822222-28.55822223 0-15.81511111 12.85688889-28.55822222 28.55822222-28.55822222h2.38933333c54.61333333 0 98.64533333 44.032 98.64533334 98.41777778-0.11377778 15.81511111-12.85688889 28.55822222-28.672 28.55822222z m0 0M669.35466667 653.1982222199999c0 15.92888889-12.85688889 28.55822222-28.672 28.55822223H164.29511111c-16.04266667 0-28.672-12.85688889-28.672-28.55822223 0-15.92888889 12.85688889-28.55822222 28.672-28.55822222h476.38755556c16.04266667 0 28.672 12.85688889 28.672 28.55822222z m-505.17333334-200.13511111c-7.62311111 0-14.90488889-2.95822222-20.25244444-8.30577778-5.34755555-5.34755555-8.41955555-12.62933333-8.41955556-20.25244444 0-15.92888889 12.85688889-28.55822222 28.672-28.55822222H488.10666667c7.62311111 0 14.90488889 2.95822222 20.25244444 8.30577778 5.34755555 5.34755555 8.41955555 12.62933333 8.41955556 20.25244444 0 15.92888889-12.85688889 28.55822222-28.672 28.55822222H164.18133333z m846.73422222-94.89066666l-159.28888888 159.1751111c-14.90488889 14.90488889-39.02577778 15.01866667-53.93066667 0.11377778L432.24177778 152.12088888999995c-14.79111111-14.79111111-26.85155555-43.91822222-26.85155556-64.96711111v-98.75911111c0-42.09777778 34.24711111-76.34488889 76.45866667-76.34488889h98.75911111c21.39022222 0 50.176 12.06044445 64.96711111 26.85155555L1011.14311111 304.35555554999996c14.67733333 14.67733333 14.67733333 38.912-0.22755556 53.8168889z m-405.84533333-378.88c-4.20977778-4.20977778-18.432-10.12622222-24.576-10.12622223h-98.75911111c-10.58133333 0-19.22844445 8.64711111-19.22844444 19.22844445V87.03999999999996c0 5.91644445 6.03022222 20.48 10.12622222 24.576l251.56266666 251.44888889 132.43733334-132.43733334-251.56266667-251.3351111z m291.95377778 291.84L764.58666667 403.56977778l60.07466666 59.96088889 132.43733334-132.43733334-60.07466667-59.96088888z m0 0"  horiz-adv-x="1024" />

    
    <glyph glyph-name="yejian" unicode="&#58887;" d="M935.2704 298.24a37.6832 37.6832 0 0 1-17.7152-4.608l-0.1792 0.256A377.472 377.472 0 0 0 411.1104 791.04a39.3728 39.3728 0 0 1 3.5584 16.128 37.76 37.76 0 0 1-37.7344 37.888 37.1968 37.1968 0 0 1-16-3.584 473.088 473.088 0 1 1 609.4336-595.2 38.0416 38.0416 0 0 1-35.0976 51.968z m-412.16-326.4a425.4464 425.4464 0 0 0-175.7696 812.032l10.4192 4.608-4.0704-11.008a424.96 424.96 0 0 1 552.3712-541.184c3.7376 1.536 7.424 2.816 11.1104 4.352q-2.1504-5.376-4.4544-10.752A423.5008 423.5008 0 0 0 523.1104-28.16z m0 0"  horiz-adv-x="1024" />

    
    <glyph glyph-name="xiepinglun" unicode="&#58930;" d="M945.7 631.3l-90.8-90.8-186.4 186.4 90.8 90.8c9.6 9.6 21.3 14.3 35.2 14.3 13.9 0 25.7-4.8 35.2-14.3l115.9-115.9c9.6-9.6 14.3-21.3 14.3-35.2 0.1-14-4.7-25.7-14.2-35.3zM64 122.4l550.7 550.7 186.4-186.4L250.4-64H64V122.4z"  horiz-adv-x="1024" />

    
    <glyph glyph-name="weibiaoti1" unicode="&#58886;" d="M490.666667 853.333333l-469.333333-469.333333 128 0 0-384c0-42.666667 42.666667-85.333333 85.333333-85.333333l85.333333 0 42.666667 0c25.6 0 42.666667 17.066667 42.666667 42.666667l0 42.666667 0 42.666667 0 128c0 25.6 17.066667 42.666667 42.666667 42.666667l128 0c25.6 0 42.666667-17.066667 42.666667-42.666667l0-85.333333 0-85.333333 0-42.666667c0-25.6 17.066667-42.666667 42.666667-42.666667l42.666667 0 85.333333 0c42.666667 0 85.333333 42.666667 85.333333 85.333333l0 384 128 0L490.666667 853.333333z"  horiz-adv-x="1024" />

    
    <glyph glyph-name="touxiang" unicode="&#58885;" d="M357.38758564 896v-1024h1028.600027V896H357.38758564z m930.086649-918.531067v-22.251031h-121.85082l19.19278 0.264224H973.73637764v0.011243h-21.686042l-34.180463-0.272656H455.83490664V-22.529661000000033s-10.030673 124.283648 172.996429 156.095932c0 0 139.33036 18.810498 149.07572699 57.125785 0 0 5.325237 4.259909 1.399825 48.760566-8.35538 94.746781-70.365092 139.338792-95.43263899 175.555748-25.084412 36.229604-27.170095 78.030398-27.17009501 78.030398 0 10.44809 4.375155 14.273716 11.644126 20.983318 8.992048 8.300568 6.296401 17.122557 4.573323 26.456128-6.5283 35.459419-7.104533 92.429199-0.889648 128.114895 1.388581 42.492274 40.395348 76.630573 40.395348 76.630574 7.323783 6.203642 14.658809 13.04395 19.79712201 21.234893 1.439177 2.283851 2.756081 4.732139 3.536104 7.323783 2.937384 9.783314-7.011773 16.963741-5.00760701 27.372479 1.796161 9.37714 17.881498 9.843748 27.59875601 10.355331 21.89967 1.152466 43.920208 2.014005 65.77630899 0.334496 163.651614-12.539395 217.464761-72.786677 217.46476101-72.786677 12.731941-15.257529 21.123863-33.912022 26.187687-53.034529 1.496801-5.714546 2.79965-11.549961 3.50237299-17.43035 5.100366-29.31059 5.083501-59.873433 3.49534601-89.493221-0.750509-14.120523-2.39207-28.02039-4.47494201-41.998962-1.082194-7.312539-0.521421-14.119117 4.35969601-19.961559 4.08985-4.885333 8.761554-8.300568 10.76572099-14.723459 0.938838-3.00344 1.180575-6.248616 1.180575-9.382762 0 0-2.089899-41.795173-27.17009399-78.024776-25.084412-36.229604-87.077258-80.801939-95.44247701-175.561369-3.925413-44.489414 1.392798-48.754944 1.392797-48.754945 9.755205-38.322314 149.081348-57.125785 149.08134901-57.125785 185.080459-34.322413 173.002051-156.101555 173.00205-156.101554l0.001406 0.004216zM1567.25649963-127.49263399999995c-114.453954 0-207.18954 92.736992-207.18954 207.18673 0 114.455359 92.735587 207.190946 207.18954 207.190946 114.451143 0 207.18673-92.735587 207.18673001-207.190946 0-114.449737-92.738398-207.18673-207.18673001-207.18673z m-14.339772 226.206639h-75.20966699c-10.408738-0.021082-18.848445-8.442518-18.894825-18.854067a18.804876 18.804876 0 0 1 5.519189-13.350337 18.810498 18.810498 0 0 1 13.358771-5.503729h75.22653199v-75.208262c0.025298-10.411549 8.446734-18.849851 18.85406701-18.894825 10.484632 0 18.855472 8.453762 18.855472 18.875149v75.272912h75.227938c10.403116 0.032325 18.830174 8.452356 18.876554 18.854067a18.807687 18.807687 0 0 1-18.876554 18.832985h-75.227938v75.209667c-0.023893 10.410143-8.445329 18.849851-18.855472 18.894825a18.804876 18.804876 0 0 1-13.357365-5.527622 18.795038 18.795038 0 0 1-5.49670201-13.370014v-75.230749z"  horiz-adv-x="2052" />

    
    <glyph glyph-name="wodebisai" unicode="&#58883;" d="M920.3 722.7H875c-11 0-20-9-20-20v-173.3c0-11 9-20 20-20h45.3c11 0 20 9 20 20V702.7c0 11.1-9 20-20 20zM257.6 532.9c0-123.1 93.5-224.4 213.3-236.8V40H363.6c-11.4 0-20.7-9.3-20.7-20.7v-42.7c0-11.4 9.3-20.7 20.7-20.7h121.3c2.3-0.8 4.8-1.3 7.4-1.3H535c2.6 0 5.1 0.5 7.4 1.3h121.3c11.4 0 20.7 9.3 20.7 20.7v42.7c0 11.4-9.3 20.7-20.7 20.7H556.3V296c120.3 12 214.2 113.5 214.2 236.9V808H257.6v-275.1z m85.3 189.8h340.9v-181.6c0-87.4-70.9-158.3-158.3-158.3h-24.4c-87.4 0-158.3 70.9-158.3 158.3V722.7z m-190.6 0H107c-11 0-20-9-20-20v-173.3c0-11 9-20 20-20h45.3c11 0 20 9 20 20V702.7c0 11.1-9 20-20 20z"  horiz-adv-x="1024" />

    
    <glyph glyph-name="gengduo1" unicode="&#58884;" d="M170.666667 871.04h286.08a85.333333 85.333333 0 0 0 85.333333-85.333333v-285.226667a85.333333 85.333333 0 0 0-85.333333-85.333333H170.666667a85.333333 85.333333 0 0 0-85.333334 85.333333V785.493333a85.333333 85.333333 0 0 0 85.333334 85.333334z m29.44-56.96a56.96 56.96 0 0 1-56.96-57.173333V529.066667a56.96 56.96 0 0 1 56.96-56.96h228.053333a56.96 56.96 0 0 1 56.96 56.96V756.906667a56.96 56.96 0 0 1-56.96 56.96zM170.666667 329.6h286.08a85.333333 85.333333 0 0 0 85.333333-85.333333v-285.226667a85.333333 85.333333 0 0 0-85.333333-85.333333H170.666667a85.333333 85.333333 0 0 0-85.333334 85.333333V244.053333a85.333333 85.333333 0 0 0 85.333334 85.333334z m28.373333-56.96a56.96 56.96 0 0 1-56.96-56.96v-228.053333a56.96 56.96 0 0 1 56.96-56.96h229.12a57.173333 57.173333 0 0 1 56.96 56.96V215.68a56.96 56.96 0 0 1-56.96 56.96z m512 56.96h286.933333a85.333333 85.333333 0 0 0 85.333334-85.333333v-285.226667a85.333333 85.333333 0 0 0-85.333334-85.333333H712.96a85.333333 85.333333 0 0 0-85.333333 85.333333V244.053333a85.333333 85.333333 0 0 0 85.333333 85.333334z m28.586667-56.96A56.96 56.96 0 0 1 682.666667 215.68v-228.053333a57.173333 57.173333 0 0 1 56.96-56.96h229.973333a56.96 56.96 0 0 1 56.96 56.96V215.68a56.96 56.96 0 0 1-56.96 56.96z m160.213333 597.333333l181.333333-181.333333a85.333333 85.333333 0 0 0 0-120.96l-181.333333-181.333333a85.333333 85.333333 0 0 0-120.96 0l-181.333333 181.333333a85.333333 85.333333 0 0 0 0 120.96l181.333333 181.333333a85.333333 85.333333 0 0 0 120.746667 0zM881.493333 810.666667a56.96 56.96 0 0 1-80.64 0l-141.013333-141.013334a56.96 56.96 0 0 1 0-80.64L801.066667 448a56.96 56.96 0 0 1 80.64 0l141.013333 141.013333a56.96 56.96 0 0 1 0 80.64z m0 0"  horiz-adv-x="1194" />

    
    <glyph glyph-name="xinxi" unicode="&#58905;" d="M511 703.8c103.9 0 207.9-1.1 311.8 0.5 51.1 0.8 71.9-21.9 71.6-71.4-0.8-128-0.8-255.9 0.1-383.8 0.4-53.7-25.8-73.9-77.6-73.1-101.9 1.6-203.9-1.8-305.9 1.6-45.6 1.5-78.4-10.8-107.4-46.3-23.5-28.7-54.8-50.9-81.8-76.9-29.8-28.8-44.5-17.9-50.8 18-0.7 3.9-0.8 8.1-0.2 12 11 67.7-5.9 105.8-86.2 93.8-36.5-5.5-57.9 21.5-57.9 60-0.2 133.9 0 267.9-0.2 401.8 0 44.6 21.7 64.5 66.4 64.2 106.2-1 212.1-0.4 318.1-0.4z m-183.1-579c16.5 15.3 29.9 24.4 39 36.8 39.4 52.7 90.4 67.4 155.3 63.4 91.6-5.5 184-0.2 276-1.9 34.3-0.6 50.7 6.6 49.9 45.7-2.3 114-1.8 228-0.6 342 0.4 31.2-5.5 46.9-42.3 46.6-196-1.6-392-1.5-588.1 0-35.2 0.3-44-12.6-43.6-45.4 1.4-116 1.4-232-0.1-348-0.4-32 11.4-40.1 41.9-41 92.1-2.7 92.1-4 112.6-98.2zM516.5 463.6c61.8 0 123.7 0.4 185.6-0.4 16.6-0.2 40.8 5.2 42-20.7 1.2-24.9-21.2-25.4-39.1-25.4-129.7-0.3-259.4-0.3-389.1 0-18 0.1-40.4 0.6-39 25.5 1.4 25.9 25.5 20.4 42.1 20.6 65.8 0.8 131.6 0.4 197.5 0.4zM510.4 559.7c63.8 0 127.5 0.4 191.2-0.3 16.9-0.2 40.6 4.2 42.1-21 1.5-25.1-20.9-25.3-38.9-25.3-129.4-0.4-258.9-0.4-388.3 0-17.9 0-40.4 0-39.1 25.1 1.2 25.4 25 21.2 41.9 21.4 63.5 0.6 127.3 0.1 191.1 0.1zM438.7 366.9c43.8 0 87.5 0.4 131.3-0.2 14.4-0.2 29.2-3.9 29.9-21.9 0.8-18.5-13.7-23.1-28.3-23.2-87.5-0.6-175-0.8-262.6-0.4-17.1 0.1-33.9 6.2-32.6 26.4 1.3 22.8 22.2 19.1 37 19.3 41.8 0.9 83.5 0.3 125.3 0.3v-0.3z"  horiz-adv-x="1024" />

    
    <glyph glyph-name="liulanjilu" unicode="&#58942;" d="M531.692308-84.676923C263.876923-84.676923 47.261538 124.061538 47.261538 384S263.876923 852.676923 531.692308 852.676923 1016.123077 643.938462 1016.123077 384s-216.615385-468.676923-484.430769-468.676923z m0 854.646154C311.138462 769.969231 133.907692 596.676923 133.907692 384s181.169231-385.969231 397.784616-385.969231 397.784615 173.292308 397.784615 385.969231-177.230769 385.969231-397.784615 385.969231z m173.292307-492.307693h-204.8c-23.630769 0-43.323077 19.692308-43.323077 39.384616V510.030769c0 19.692308 19.692308 39.384615 43.323077 39.384616s43.323077-19.692308 43.323077-39.384616v-153.6H708.923077c23.630769 0 43.323077-19.692308 43.323077-39.384615 0-23.630769-27.569231-39.384615-47.261539-39.384616z"  horiz-adv-x="1063" />

    
    <glyph glyph-name="shoucang" unicode="&#58916;" d="M771.072-107.008c-14.336 0-30.72 4.096-45.568 11.776L512 11.776l-215.04-106.496c-13.824-7.168-29.184-11.264-45.056-11.264-20.48 0-40.96 6.656-57.344 18.944-30.208 22.528-45.568 61.44-38.4 97.28l44.032 227.84L32.256 394.752c-26.112 26.112-35.84 64.512-26.112 100.352l0.512 1.024c12.288 36.864 42.496 62.464 79.36 67.584l233.984 42.496L424.96 819.712c16.896 33.792 51.2 55.296 87.552 55.296 37.888 0 73.216-22.528 88.064-56.32l104.448-212.48 233.984-40.96c37.376-5.632 67.584-32.256 77.824-68.096 11.776-35.328 2.048-74.24-24.576-100.864l-0.512-0.512-167.936-158.208 42.496-228.352c6.656-36.352-7.68-73.216-37.888-96.256-16.384-12.8-36.352-19.968-57.344-19.968zM512.512 92.16l224.256-112.128c6.656-3.072 14.336-5.632 19.456-5.632 8.192 0 15.36 2.56 20.992 7.168l1.024 1.024c12.8 9.728 18.944 24.576 16.384 39.424l-45.056 243.2 178.688 167.936c10.752 11.264 14.848 27.136 9.728 41.472l-0.512 1.536c-4.096 14.336-15.872 24.576-30.72 26.624h-1.024l-246.784 43.008L547.84 771.584c-5.632 12.8-19.968 22.016-34.816 22.016-14.336 0-28.672-9.216-35.328-23.04L366.592 546.304l-248.32-45.056c-14.848-2.048-26.624-11.776-32.256-27.648-3.584-14.336 0.512-31.232 11.264-41.984l178.688-166.4-47.104-243.2c-3.072-13.824 4.096-30.208 16.384-39.424 6.144-4.608 14.336-7.168 22.528-7.168 6.656 0 12.8 1.536 17.92 4.608l1.024 0.512 225.792 111.616z"  horiz-adv-x="1024" />

    
    <glyph glyph-name="zhuanfa" unicode="&#58924;" d="M899.84-3.84H124.16V771.84h355.84a44.1344 44.1344 0 1 1 0 88.32h-371.2C68.5056 860.16 35.84 827.4944 35.84 787.2v-806.4c0-40.2944 32.6656-72.96 72.96-72.96h806.4c40.2944 0 72.96 32.6656 72.96 72.96v374.4256a44.1344 44.1344 0 1 1-88.32 0v-359.0656zM762.2144 487.0656a43.6224 43.6224 0 0 1-13.0048-42.6496 43.1104 43.1104 0 1 1 75.264-18.2272l151.1424 153.6a44.1856 44.1856 0 0 1 0 61.696l-151.6544 154.4704a43.1616 43.1616 0 0 1-61.7472 0 44.3392 44.3392 0 0 1 0-61.952l80.384-81.7664C591.6672 629.76 395.4688 416.3584 394.24 156.5696c0-24.2176 19.3536-43.9296 43.4176-43.9296 24.0128 0 43.3664 19.712 43.3664 43.8784 1.024 209.5616 155.9552 382.5152 356.4032 406.9888l-75.2128-76.4416z"  horiz-adv-x="1024" />

    
    <glyph glyph-name="shezhi" unicode="&#58910;" d="M881 384c0 52.4 32.9 96.8 79 114.5-11 43.2-28 83.9-50.2 121.3C864.6 599.7 810 607.9 773 645c-37 37-45.2 91.7-25.1 136.8C710.4 804 669.7 821 626.5 832c-17.8-46.1-62.2-79-114.5-79-52.4 0-96.8 32.9-114.5 79-43.2-11-83.9-28-121.3-50.2 20.1-45.2 11.9-99.8-25.1-136.8-37-37-91.7-45.2-136.8-25.2C92 582.4 75 541.7 64 498.5c46.1-17.8 79-62.2 79-114.5 0-52.4-32.9-96.8-79-114.5 11-43.2 28-83.9 50.2-121.3C159.4 168.3 214 160.1 251 123c37-37 45.2-91.7 25.1-136.8C313.6-36 354.3-53 397.5-64c17.8 46.1 62.2 79 114.5 79 52.4 0 96.8-32.9 114.5-79 43.2 11 83.9 28 121.3 50.2-20.1 45.2-11.9 99.8 25.1 136.8 37 37 91.7 45.2 136.8 25.2C932 185.6 949 226.3 960 269.5c-46.1 17.7-79 62.1-79 114.5zM512 261c-67.9 0-123 55.1-123 123s55.1 123 123 123 123-55.1 123-123-55.1-123-123-123z"  horiz-adv-x="1024" />

    
    <glyph glyph-name="liangle-zuqiu" unicode="&#58907;" d="M369.834667 184.604444a42.666667 42.666667 0 0 0 23.665777-38.172444v-98.702222c0-14.108444 11.434667-25.6 25.6-25.6h179.484445a25.6 25.6 0 0 1 25.6 25.6v92.273778a42.666667 42.666667 0 0 0 23.495111 38.115555c98.759111 49.777778 166.115556 152.405333 166.115556 257.137778 0 181.475556-131.754667 323.299556-286.663112 323.299555-186.709333 0-323.299556-136.533333-323.299555-323.299555 0-102.741333 64.170667-199.964444 166.001778-250.652445z m-61.667556-63.658666C191.772444 188.643556 118.499556 307.655111 118.499556 435.256889c0 233.813333 174.762667 408.632889 408.632888 408.632889 203.491556 0 372.053333-181.304889 372.053334-408.632889 0-129.251556-75.889778-252.871111-189.667556-320.455111v-67.072a110.933333 110.933333 0 0 0-110.933333-110.933334H419.100444a110.933333 110.933333 0 0 0-110.933333 110.933334v73.216zM477.240889 671.630222a28.444444 28.444444 0 0 0 0-56.888889A129.649778 129.649778 0 0 1 347.648 485.148444a28.444444 28.444444 0 1 0-56.888889 0A186.538667 186.538667 0 0 0 477.240889 671.630222zM350.833778 169.073778h316.074666v-63.203556H350.833778zM414.037333 11.093333m56.888889 0l75.832889 0q56.888889 0 56.888889-56.888889l0-12.629333q0-56.888889-56.888889-56.888889l-75.832889 0q-56.888889 0-56.888889 56.888889l0 12.629333q0 56.888889 56.888889 56.888889Z"  horiz-adv-x="1024" />
=======
    <glyph glyph-name="more" unicode="&#58934;" d="M170.666667 469.333333c-46.933333 0-85.333333-38.4-85.333333-85.333333 0-46.933333 38.4-85.333333 85.333333-85.333333s85.333333 38.4 85.333333 85.333333C256 430.933333 217.6 469.333333 170.666667 469.333333zM853.333333 469.333333c-46.933333 0-85.333333-38.4-85.333333-85.333333 0-46.933333 38.4-85.333333 85.333333-85.333333s85.333333 38.4 85.333333 85.333333C938.666667 430.933333 900.266667 469.333333 853.333333 469.333333zM512 469.333333c-46.933333 0-85.333333-38.4-85.333333-85.333333 0-46.933333 38.4-85.333333 85.333333-85.333333s85.333333 38.4 85.333333 85.333333C597.333333 430.933333 558.933333 469.333333 512 469.333333z"  horiz-adv-x="1024" />

    
    <glyph glyph-name="search" unicode="&#58956;" d="M950.436052-12.47180000000003l-0.463558 0.451278 0.002047 0.001023L775.148817 162.67626499999994c61.270459 70.873164 98.333586 163.254178 98.333586 264.292362 0 223.300762-181.02082 404.321582-404.321582 404.321582-223.300762 0-404.321582-181.02082-404.321582-404.321582s181.02082-404.321582 404.321582-404.321582c101.063767 0 193.465247 37.080523 264.34455 98.377588L904.993071-50.33617600000002l-0.048095-0.047072 4.389984-4.27742c11.650341-11.349489 30.29498-11.105942 41.643446 0.542352C962.32994-42.466950999999995 962.086393-23.820265999999947 950.436052-12.47180000000003zM122.714368 426.968627c0 191.33677 155.109684 346.44543 346.44543 346.44543 191.335746 0 346.444407-155.10866 346.444407-346.44543 0-191.335746-155.10866-346.44543-346.444407-346.44543C277.824051 80.52217399999995 122.714368 235.632881 122.714368 426.968627z"  horiz-adv-x="1024" />

    
    <glyph glyph-name="back" unicode="&#58888;" d="M671.968-16c-12.288 0-24.576 4.672-33.952 14.048L286.048 350.01599999999996c-18.752 18.72-18.752 49.12 0 67.872l351.968 352c18.752 18.752 49.12 18.752 67.872 0 18.752-18.72 18.752-49.12 0-67.872L387.872 383.96799999999996l318.016-318.016c18.752-18.752 18.752-49.12 0-67.872-9.344-9.408-21.632-14.08-33.92-14.08z"  horiz-adv-x="1024" />
>>>>>>> LPF
=======
    <glyph glyph-name="changjianwenti" unicode="&#58985;" d="M917.331968 748.129024l-817.54112 0c-21.486592 0-39.617536-18.146304-39.617536-39.61344l0-817.559552c0-21.469184 18.130944-40.081408 39.617536-40.081408l817.54112 0c21.481472 0 39.135232 18.612224 39.135232 40.081408L956.4672 708.515584C956.466176 729.98272 938.812416 748.129024 917.331968 748.129024zM557.95712-17.887488 415.726592-17.887488 415.726592 118.133504l142.230528 0L557.95712-17.887488zM612.84352 289.951488c-43.85792-32.526336-63.481856-66.817024-63.481856-101.658624l0-26.249216L418.118656 162.043648l0 34.839552c0 56.794112 24.67328 100.445184 81.60768 139.839488 49.973248 34.582528 74.032128 73.022464 72.544256 113.112064-1.855488 50.113536-26.249216 78.749696-72.544256 78.749696-53.454848 0-83.999744-40.090624-95.921152-116.453376L273.02912 412.131072c19.090432 136.976384 93.539328 205.165568 226.697216 203.316224 139.844608-1.969152 209.257472-56.297472 214.774784-159.885312C717.574144 397.824768 683.528192 342.372096 612.84352 289.951488z"  horiz-adv-x="1024" />

    
    <glyph glyph-name="tonghuajilu" unicode="&#58971;" d="M670.272 145.536c0 0-81.472 48.064-97.536 59.968-16 11.84-32.704-20.928-53.568-41.152-20.928-20.16-18.112-16.768-65.472 9.088-47.424 25.728-95.424 89.152-112.192 114.88C324.736 314.112 333.76 323.84 333.76 323.84s41.856 33.472 51.648 43.264c9.664 9.728 6.912 16 6.912 16L324.032 484.032C311.488 486.72 289.92 481.344 255.808 453.44 221.632 425.6 209.152 361.472 273.216 243.84c64.128-117.76 184.64-175.616 257.728-198.656 73.216-22.912 121.216 32.768 132.288 55.04C674.496 122.56 670.272 145.536 670.272 145.536zM766.976 832l-510.08 0C192.576 832 140.352 779.84 140.352 715.392l0-662.72C140.352-11.84 192.576-64 256.96-64l510.08 0c64.512 0 116.608 52.16 116.608 116.608L883.648 715.392C883.648 779.84 831.488 832 766.976 832zM825.152 104.768c0-54.336-44.032-98.304-98.24-98.304L297.088 6.464c-54.208 0-98.24 44.032-98.24 98.304L198.848 663.232c0 54.272 44.032 98.304 98.24 98.304l429.824 0c54.272 0 98.24-44.032 98.24-98.304L825.152 104.768zM713.984 660.16c0-6.656-5.376-12.032-12.032-12.032l-288 0c-6.656 0-12.032 5.376-12.032 12.032l0 0c0 6.656 5.376 12.032 12.032 12.032l288 0C708.608 672.192 713.984 666.816 713.984 660.16L713.984 660.16zM713.984 576.192c0-6.656-5.376-12.032-12.032-12.032l-288 0c-6.656 0-12.032 5.376-12.032 12.032l0 0c0 6.656 5.376 12.032 12.032 12.032l288 0C708.608 588.16 713.984 582.784 713.984 576.192L713.984 576.192zM713.984 482.432c0-6.656-5.376-11.968-12.032-11.968l-288 0c-6.656 0-12.032 5.312-12.032 11.968l0 0c0 6.656 5.376 12.032 12.032 12.032l288 0C708.608 494.4 713.984 489.088 713.984 482.432L713.984 482.432z"  horiz-adv-x="1024" />

    
    <glyph glyph-name="icon1" unicode="&#58911;" d="M511.992325 785.068627c-267.881097 0-485.039975-217.158878-485.039975-485.039975s217.158878-485.039975 485.039975-485.039975c267.87905 0 485.036905 217.159902 485.036905 485.039975S779.871375 785.068627 511.992325 785.068627zM511.992325-131.115831c-238.118236 0-431.150624 193.031365-431.150624 431.146531S273.874089 731.178253 511.992325 731.178253c238.113119 0 431.143461-193.031365 431.143461-431.147554S750.105445-131.115831 511.992325-131.115831zM404.204413 623.390341 619.777167 623.390341 565.883723 515.604476 458.097858 515.604476ZM409.129586 222.958346 614.947162 73.272185 646.723889 111.402621 639.65796 136.136955 428.252109 289.887688ZM591.064218 306.213515 538.938024 488.656731 485.043556 488.656731 460.125027 401.44239ZM402.754389 200.648225 377.256668 111.402621 511.990279-50.275665 600.965729 56.493034ZM453.751876 379.131245 434.627307 312.19781 629.937574 170.1537 600.782557 272.196771Z"  horiz-adv-x="1024" />

    
    <glyph glyph-name="security" unicode="&#58978;" d="M511.104 768c1.28 0 2.496 0 3.776 0 0.96-0.384 1.92-0.896 2.944-1.088 55.616-10.752 111.232-21.504 166.784-32.256 65.536-12.672 131.136-25.344 196.672-38.080 15.872-3.072 31.744-6.336 47.68-9.472 0.064-1.92 0.192-3.328 0.192-4.672 0-161.408 0-322.816 0-484.16 0-28.096-6.016-54.848-17.472-80.384-23.040-51.328-57.024-94.848-96.704-134.144-38.080-37.76-80.256-70.528-125.312-99.52-44.608-28.736-91.392-53.248-142.336-69.056-8.896-2.752-17.984-4.8-26.944-7.168-1.536 0-3.136 0-4.672 0-0.512 0.32-1.024 0.768-1.6 0.832-29.568 5.888-57.6 16.384-84.864 28.864-80.32 36.8-152.576 85.824-216.64 146.624-37.824 35.904-70.4 76.032-94.464 122.688-14.976 29.056-23.488 59.648-23.488 92.544 0.192 160.768 0.192 321.6 0.192 482.304 0 1.664 0.128 3.328 0.192 5.056 10.176 1.536 19.904 2.816 29.568 4.608 46.272 8.96 92.48 17.984 138.688 27.136 72.256 14.208 144.448 28.416 216.704 42.752 10.432 2.048 20.736 4.416 31.104 6.592zM512.64 329.792c0.128 1.984 0.448 4.032 0.448 6.080 0 118.4 0 236.8 0 355.264 0 0.768-0.128 1.536 0 2.304 0.64 3.776-1.6 4.8-4.608 4.544-3.584-0.32-7.104-0.96-10.624-1.6-56.64-10.176-113.344-20.352-169.984-30.528-48.192-8.576-96.448-17.344-144.704-25.792-3.776-0.704-4.608-2.176-4.608-5.76 0.064-99.712 0.064-199.36 0.064-299.008 0-1.6 0.256-3.264 0.384-5.12 2.56 0 4.608 0 6.656 0 107.136 0 214.336 0 321.472 0 1.856 0 3.776-0.128 5.632-0.256 0.064-1.984 0.128-4.032 0.128-6.080 0-142.144 0-284.288 0-426.432 0-1.984 0-3.968 0-6.208 1.472 0.256 2.496 0.256 3.328 0.576 16.768 5.376 33.792 10.112 50.24 16.384 58.304 22.336 111.552 53.696 160.64 92.032 36.672 28.672 68.928 61.632 92.608 102.144 16 27.264 25.984 56.192 25.856 88.256-0.256 44.8-0.064 89.6-0.064 134.528 0 1.6-0.128 3.328-0.256 5.312-2.048 0-3.584 0-5.12 0-107.456 0-214.912 0-322.432-0.064-1.728-0-3.392-0.384-5.056-0.576z"  horiz-adv-x="1024" />

    
    <glyph glyph-name="dizhi" unicode="&#58910;" d="M726.464 178.816c-30.656-35.072-78.912-109.824-163.52-217.408-14.144-17.344-33.536-27.008-54.144-27.008-20.736 0-39.808 9.792-53.568 26.752-2.112 2.88-163.904 228.032-163.904 228.032l0 0.064c-57.536 64.576-146.368 193.92-146.368 284.032 0 198.72 160.384 360.384 364.288 360.384s369.856-161.664 369.856-360.384C879.04 356.928 742.08 196.8 726.464 178.816L726.464 178.816zM509.248 777.536c-172.16 0-312.256-136.512-312.256-304.256 0-72.768 83.328-196.992 135.872-258.176 57.472-66.88 162.688-214.272 167.168-220.544 1.728-2.112 4.992-4.032 8-4.032 3.072 0 6.336 1.92 9.216 5.44 82.752 105.216 132.032 181.12 165.312 219.264 66.944 76.608 138.944 189.952 138.944 257.984C821.44 641.024 681.408 777.536 509.248 777.536L509.248 777.536zM509.248 332.992c-94.72 0-171.84 75.072-171.84 167.424s77.12 167.424 171.84 167.424c94.72 0 171.776-75.072 171.776-167.424S603.968 332.992 509.248 332.992L509.248 332.992zM509.248 611.712c-63.04 0-114.304-49.984-114.304-111.296 0-61.376 51.264-111.296 114.304-111.296 63.04 0 114.304 49.984 114.304 111.296C623.488 561.728 572.224 611.712 509.248 611.712L509.248 611.712z"  horiz-adv-x="1024" />

    
    <glyph glyph-name="caigou" unicode="&#58899;" d="M207.962937 706.766125 207.962937 706.766125c19.73753 19.685341 52.062749 19.685341 71.592548 0L541.066501 445.309344c19.685341-19.739577 19.685341-51.934836 0-71.595618l0 0c-19.581987-19.787672-51.804876-19.787672-71.594595 0L207.962937 635.042593C188.379926 654.781146 188.379926 686.951847 207.962937 706.766125L207.962937 706.766125zM896.550795 448.676022 577.122695 448.676022c16.784268-31.05632 12.224416-70.765717-13.986549-97.02887-31.911804-31.886221-83.769892-31.886221-115.627461 0l-96.978728 97.02887L121.759623 448.676022c-32.016181 0-58.332547-26.290783-58.332547-58.332547l0 0c0-32.0653 26.316366-58.357106 58.332547-58.357106l13.986549 0 134.589324-394.543891 118.736265 0 247.936859 0L755.848239-62.557522l134.588301 394.543891 6.114255 0c32.118512 0 58.3305 26.290783 58.3305 58.357106l0 0C954.881294 422.385239 928.669306 448.676022 896.550795 448.676022L896.550795 448.676022zM275.412119 295.203628l470.799646 0c16.476253 0 29.840632-13.468756 29.840632-29.941939l0 0c0-16.476253-13.365402-29.943986-29.840632-29.943986L275.412119 235.317703c-16.473183 0-29.941939 13.467733-29.941939 29.943986l0 0C245.469156 281.734872 258.938935 295.203628 275.412119 295.203628L275.412119 295.203628zM341.204567 57.731098l342.222245 0c16.368806 0 29.838585-13.57211 29.838585-30.045293l0 0c0-16.474206-13.469779-29.942963-29.838585-29.942963L341.204567-2.257158c-16.423041 0-29.943986 13.468756-29.943986 29.942963l0 0C311.260581 44.158988 324.781526 57.731098 341.204567 57.731098L341.204567 57.731098zM308.308343 174.602899l410.964886 0c16.47523 0 29.945009-13.57211 29.945009-30.149671l0 0c0-16.474206-13.469779-29.839609-29.945009-29.839609L308.308343 114.61362c-16.47523 0-29.788443 13.366426-29.788443 29.839609l0 0C278.5199 161.030789 291.833113 174.602899 308.308343 174.602899zM544.692075 833.740004 544.692075 662.94099 459.319685 662.94099 630.067534 492.167558 800.918737 662.94099 715.544301 662.94099 715.544301 833.740004 544.692075 833.740004Z"  horiz-adv-x="1024" />

    
    <glyph glyph-name="iconfonticonfontsousuo1" unicode="&#58927;" d="M746.3013 239.9727c0 0-14.2549-18.8622-33.3428-37.3497l219.773-215.354 36.4768 34.1019L746.3013 239.9727zM824.3495 473.4274c0-213.7901-164.6831-374.2772-368.8031-374.2772C242.705 102.239 88.3684 269.8434 88.3684 473.1376c0 196.3739 166.1232 361.9626 367.1781 361.9626C659.6664 835.1002 824.3495 667.3559 824.3495 473.4274zM454.2033 786.0374c-174.9625 0-316.7702-141.9208-316.7702-318.9128 0-176.993 141.8077-319.8931 316.7702-319.8931 174.9865 0 321.0815 142.9001 321.0815 319.8931C775.2848 644.1176 629.1899 786.0374 454.2033 786.0374z"  horiz-adv-x="1024" />

    
    <glyph glyph-name="gouwuche" unicode="&#59143;" d="M289.92 128c2.56 0 632.32 0 639.36 0 14.72 0 26.24 12.8 28.16 28.8 0 0 43.52 244.48 64 413.44C1027.2 616.96 1004.8 640 961.92 640L264.96 640 253.44 739.84C251.52 755.2 240.64 768 226.56 768 224.64 768 97.92 768 97.92 768c-17.92 0-32-14.08-32-32 0-17.92 14.08-32 32-32l99.84 0 64.64-547.2C263.68 140.8 275.84 128 289.92 128zM960.64 576c-17.28-135.68-46.08-316.16-57.6-384L318.08 192 272.64 576 960.64 576zM321.92 64c-35.2 0-64-28.8-64-64 0-35.2 28.8-64 64-64 35.2 0 64 28.8 64 64C385.92 35.2 357.12 64 321.92 64zM897.92 64c-35.2 0-64-28.8-64-64 0-35.2 28.8-64 64-64 35.2 0 64 28.8 64 64C961.92 35.2 933.12 64 897.92 64z"  horiz-adv-x="1024" />

    
    <glyph glyph-name="tongzhi" unicode="&#58925;" d="M856.798419 102.887554l-73.742515 129.741923L783.055904 494.156866c0 100.20112-75.31636 208.644971-185.111998 248.378927-5.348821 53.104475-40.835034 91.831498-87.334068 91.831498-46.434565 0-82.048691-38.728046-87.332021-91.831498-109.73424-39.733956-185.049576-148.176784-185.049576-248.378927l0-261.527388-77.329203-136.096654c-5.158487-8.997931-5.03262-20.008706 0.125867-28.944216 5.15951-8.933463 14.724353-14.346753 25.042349-14.346753l184.04162 0c13.528108-65.310472 71.353095-114.51308 140.501988-114.51308 69.213361 0 127.036301 49.202609 140.500964 114.51308l184.04162 0c0.505513 0 0.881067 0 1.322112 0 16.045441 0 29.007661 12.898775 29.007661 28.944216C865.482195 90.302935 862.209662 97.664599 856.798419 102.887554M510.609839 776.291594c10.444886 0 18.875906-7.927553 24.287149-19.756973-8.05342 0.818645-15.85613 2.705622-24.287149 2.705622s-16.232706-1.886977-24.287149-2.705622C491.734956 768.365064 500.165975 776.291594 510.609839 776.291594M510.609839-3.258974c-36.808324 0-67.576071 23.657816-79.532381 56.500828l159.062715 0C578.186933 20.399865 547.482631-3.258974 510.609839-3.258974M235.90022 111.192707l56.502875 99.476619c2.515287 4.28049 3.89982 9.314133 3.89982 14.34573L296.302915 494.156866c0 97.747231 91.611487 207.070102 214.306924 207.070102 122.694413 0 214.431767-109.322871 214.431767-207.070102L725.041606 225.015056c0-5.031597 1.322112-10.06524 3.774977-14.34573l56.565297-99.476619L235.90022 111.192707z"  horiz-adv-x="1024" />

    
    <glyph glyph-name="jifen" unicode="&#58916;" d="M510.292 357.875c270.136 0 489.127 113.174 489.127 252.944 0 139.769-218.989 252.942-489.127 252.942s-489.126-113.174-489.126-252.943c0-139.77 218.988-252.943 489.126-252.943v0zM510.29 799.387c235.235 0 425.93-84.429 425.93-188.568 0-104.143-190.696-188.57-425.93-188.57-235.233 0-425.93 84.427-425.93 188.57 0 104.138 190.697 188.568 425.93 188.568v0zM999.259 382.586l-3.125 31.571c-1.751 17.691-17.511 30.612-35.201 28.861-17.69-1.752-30.612-17.511-28.859-35.203l0.956-9.668h-0.298c0.167-0.575 0.315-1.154 0.468-1.727l1.999-20.177c0.178-1.801 0.509-3.548 0.963-5.241-3.52-102.796-192.839-185.651-425.873-185.651-233.714 0-423.457 83.339-425.901 186.554 0.336 1.408 0.59 2.855 0.738 4.339l3.124 31.573c1.753 17.689-11.168 33.451-28.858 35.203-17.69 1.75-33.45-11.17-35.202-28.861l-3.124-31.571c-0.248-2.493-0.193-4.945 0.114-7.326-0.004-0.447-0.015-0.895-0.015-1.343 0-139.769 218.987-252.941 489.127-252.941 270.134 0 489.126 113.172 489.126 252.941 0 1.214-0.024 2.421-0.054 3.63 0.097 1.653 0.068 3.335-0.102 5.038v0zM999.259 145.778l-0.045 0.451c-0.214 4.079-0.594 8.138-1.176 12.168h-0.028l-1.876 18.957c-1.751 17.688-17.511 30.611-35.201 28.858-17.69-1.751-30.612-17.508-28.859-35.2l3.126-31.574c0.166-1.699 0.468-3.353 0.883-4.957-5.738-101.928-194.174-183.782-425.794-183.782-232.309 0-421.172 82.342-425.834 184.692 0.302 1.319 0.533 2.666 0.669 4.045l3.124 31.574c1.752 17.69-11.168 33.45-28.858 35.2-17.69 1.753-33.45-11.168-35.201-28.858l-3.125-31.576c-0.246-2.472-0.193-4.909 0.108-7.275 0.798-139.415 219.471-252.177 489.118-252.177 270.136 0 489.127 113.174 489.127 252.943 0 0.654-0.027 1.305-0.035 1.955 0.061 1.504 0.027 3.023-0.126 4.556v0z"  horiz-adv-x="1024" />

    
    <glyph glyph-name="mima" unicode="&#58907;" d="M916.210526-128 107.789474-128C78.012632-128 53.894737-103.855158 53.894737-74.105263L53.894737 410.947368C53.894737 440.724211 78.012632 464.842105 107.789474 464.842105L188.631579 464.842105 188.631579 572.631579C188.631579 751.238737 333.419789 896 512 896 690.580211 896 835.368421 751.238737 835.368421 572.631579L835.368421 464.842105 916.210526 464.842105C945.987368 464.842105 970.105263 440.724211 970.105263 410.947368L970.105263-74.105263C970.105263-103.855158 945.987368-128 916.210526-128ZM781.473684 572.631579C781.473684 721.461895 660.830316 842.105263 512 842.105263 363.169684 842.105263 242.526316 721.461895 242.526316 572.631579L242.526316 464.842105 781.473684 464.842105 781.473684 572.631579ZM916.210526 410.947368 835.368421 410.947368 188.631579 410.947368 107.789474 410.947368 107.789474-74.105263 916.210526-74.105263 916.210526 410.947368ZM512 303.157895C526.874947 303.157895 538.947368 291.085474 538.947368 276.210526L538.947368 60.631579C538.947368 45.756632 526.874947 33.684211 512 33.684211 497.125053 33.684211 485.052632 45.756632 485.052632 60.631579L485.052632 276.210526C485.052632 291.085474 497.125053 303.157895 512 303.157895Z"  horiz-adv-x="1024" />

    
    <glyph glyph-name="wode" unicode="&#58934;" d="M899.64-1.715c-7.238 108.133-60.68 208.738-146.61 276.032l-5.165 3.568-0.047-0.07c-4.887 2.989-10.458 4.587-16.193 4.587-19.702 0-31.458-9.498-31.458-25.412 0-9.266 4.285-17.975 11.477-23.883l-0.08-0.139 4.562-3.266c72.065-51.519 112.638-129.653 120.584-232.273l0.085-1.12a31.507 31.507 0 0 1-0.116-2.612c0-17.341 14.058-31.4 31.4-31.4 16.76 0 30.45 13.13 31.35 29.665h0.624l-0.412 6.323z m-101.124 525.92c0 156.107-128.53 283.118-286.525 283.118S225.465 680.312 225.465 524.204c0-84.11 37.191-162.57 102.378-216.66-117.017-62.453-194.688-181.59-203.48-313.119l-0.362-5.483c-0.007-0.113-0.016-0.226-0.022-0.34l-0.033-0.5h0.02c-0.009-0.267-0.02-0.533-0.02-0.802 0-14.703 11.918-26.622 26.622-26.622 14.703 0 26.623 11.918 26.623 26.622 0 0.27-0.013 0.535-0.02 0.802h0.554l0.417 5.468c9.648 124.998 88.871 234.45 202.112 279.553 33.81-15.706 85.42-32.06 131.715-32.06 42.89 0 84.54 9.45 124.199 28.307l29.049 16.863 23.72 15.567c69.63 54.203 109.579 135.28 109.579 222.404zM511.99 298.068c-126.248 0-228.95 101.462-228.95 226.158 0 124.673 102.701 226.112 228.95 226.112 126.26 0 228.973-101.439 228.973-226.112-0.001-124.696-102.714-226.158-228.973-226.158z"  horiz-adv-x="1024" />

    
    <glyph glyph-name="zhilianganquan" unicode="&#58901;" d="M511.590687 836.649545c60.476067 0 119.110223-11.870091 174.367542-35.200959 53.313081-22.512241 101.202758-54.848006 142.441091-95.984011s73.47177-89.025682 95.984012-142.441091c23.330868-55.154992 35.200959-113.891476 35.200959-174.367543s-11.870091-119.110223-35.200959-174.367543c-22.512241-53.313081-54.848006-101.202758-95.984012-142.441091s-89.025682-73.47177-142.441091-95.984011c-55.154992-23.330868-113.891476-35.200959-174.367542-35.20096s-119.110223 11.870091-174.367543 35.20096c-53.313081 22.512241-101.202758 54.848006-142.441091 95.984011s-73.47177 89.025682-95.984012 142.441091c-23.330868 55.154992-35.200959 113.891476-35.200959 174.367543 0 60.476067 11.870091 119.110223 35.200959 174.367543 22.512241 53.313081 54.848006 101.202758 95.984012 142.441091 41.136005 41.136005 89.025682 73.47177 142.441091 95.984011 55.154992 23.330868 113.891476 35.200959 174.367543 35.200959m0 51.164185c-275.672629 0-499.055461-223.48516-499.055462-499.055461s223.48516-499.055461 499.055462-499.055461S1010.646148 113.187968 1010.646148 388.758269s-223.382832 499.055461-499.055461 499.055461zM748.07155 500.807835c-1.330269 49.833916-7.265314 83.49995-7.265314 83.806935-0.204657 2.558209-1.534926 4.911762-3.581493 6.549015-1.637254 1.22794-3.581493 1.841911-5.628061 1.841911-0.511642 0-1.125612 0-1.637254-0.102328-0.306985-0.102328-25.684421-8.493255-58.531827-8.493255-18.930748 0-40.726691 6.958329-52.494454 10.539822a349.338823 349.338823 0 0 0-75.722994 33.461377c-16.884181 10.02818-25.786749 17.60048-25.889078 17.702808-1.739582 1.534926-3.888478 2.251224-6.037374 2.251224-2.148896 0-4.297792-0.716299-6.037373-2.251224-0.102328-0.102328-8.902568-7.674628-25.78675-17.702808-15.553912-9.209553-41.340662-22.921555-75.620665-33.461377-11.767763-3.581493-31.824123-11.153792-50.754872-11.153792-32.949735 0-59.862097 9.004897-60.169081 9.107225-0.511642 0.102328-1.125612 0.102328-1.637254 0.102328-2.046567 0-3.990806-0.61397-5.628061-1.841911-2.046567-1.534926-3.376836-3.888478-3.581493-6.549015 0-0.306985-4.604777-33.973019-5.935045-83.806935-1.22794-46.047767-0.716299-108.263416 7.469971-169.762767 3.78615-28.651944 19.340062-54.131708 43.898871-83.090636 19.237734-22.61457 44.717498-45.22914 75.722994-67.229739 52.596782-37.145198 102.94234-59.248126 105.091236-60.169082 1.22794-0.511642 2.455881-0.818627 3.786149-0.818627 1.22794 0 2.558209 0.306985 3.78615 0.818627 2.046567 0.920955 51.368842 23.126212 103.965624 60.169082 31.107825 21.898271 56.587589 44.512841 75.825322 67.229739 24.558809 28.958929 40.112721 56.689917 43.898871 85.341861 4.297792 33.973019 10.744479 84.011592 8.493255 167.511542z m-44.717498-162.702109c-2.762866-20.772659-15.144599-42.466274-35.610273-66.513441-17.191166-20.363346-40.419706-40.82902-69.071649-60.987708-35.917258-25.377436-70.197262-43.284901-86.979115-51.573499-17.293495 8.288598-51.982812 26.196063-87.797742 51.573499-28.549615 20.158689-51.778155 40.726691-68.969321 60.987708-21.488958 25.377436-32.949735 44.615169-35.507945 64.262217-8.288598 62.317977-8.18627 123.510343-7.162986 164.032377 0.511642 19.954032 2.046567 37.247527 3.069852 50.550215 11.051464-1.739582 23.944839-3.069851 37.759168-3.069851 21.795943 0 42.466274 6.651344 56.075947 11.051464 1.944239 0.61397 3.78615 1.22794 5.218747 1.637254 28.958929 8.902568 57.099231 21.284301 83.49995 36.940541 5.116419 3.069851 9.618867 5.832717 13.507345 8.493255 3.888478-2.558209 8.390926-5.423404 13.507345-8.493255 26.400719-15.656241 54.541021-28.037973 83.49995-36.940541l1.534925-0.409314c13.302688-4.093135 37.963825-11.665434 61.601679-11.665434 13.507345 0 25.889078 1.22794 36.531228 2.762866 1.125612-13.405016 3.376836-30.800839 3.888478-50.8572 2.046567-82.067353-4.297792-130.059358-8.595583-161.781153z m-95.677026-30.698511c14.837614 24.763466 23.637854 52.903767 23.637854 84.72789 0 88.002398-44.922154 138.245628-118.393925 138.245628-74.495053 0-118.496253-51.061857-118.496252-138.245628 0-86.058159 46.45708-135.278105 118.496252-135.278105 30.391526 0 55.768962 8.902568 75.518337 26.707705l26.605377-25.275108c2.967523-1.944239 6.856001-3.479165 11.870091-4.502448 8.902568 1.023284 13.81433 4.911762 14.837613 11.870091 0 3.990806-1.944239 8.390926-5.935045 13.405016l-28.140302 28.344959z m-25.172779 23.84251l-17.805136 17.805137c-3.990806 3.990806-8.390926 5.935045-13.302688 5.935045-8.902568-2.046567-13.81433-6.958329-14.837614-14.837614-1.023284-5.01409 1.432597-9.41421 7.367642-13.405016l22.205257-20.772659c-13.81433-14.837614-31.619466-18.930748-53.313081-18.930749-53.210752 2.046567-85.034876 34.689317-85.034876 105.091236 0 68.048366 31.926451 105.50055 85.137204 108.468073 52.289797-2.967523 85.137204-39.703408 85.137204-108.468073 0.102328-23.330868-7.674628-43.080244-15.553912-60.88538z"  horiz-adv-x="1024" />

    
    <glyph glyph-name="tianjia" unicode="&#58914;" d="M801.171 412.411H544V669.582c0 17.673-14.327 32-32 32s-32-14.327-32-32v-257.171H222.83c-17.673 0-32-14.327-32-32s14.327-32 32-32H480v-257.17c0-17.673 14.327-32 32-32s32 14.327 32 32v257.17h257.171c17.673 0 32 14.327 32 32s-14.327 32-32 32z"  horiz-adv-x="1024" />

    
    <glyph glyph-name="weixin" unicode="&#59195;" d="M352.814545 510.603636m-33.512727 0a33.512727 33.512727 0 1 1 67.025455 0 33.512727 33.512727 0 1 1-67.025455 0ZM502.690909 511.534545m-33.512727 0a33.512727 33.512727 0 1 1 67.025454 0 33.512727 33.512727 0 1 1-67.025454 0ZM576.232727 361.658182m-23.272727 0a23.272727 23.272727 0 1 1 46.545455 0 23.272727 23.272727 0 1 1-46.545455 0ZM694.458182 359.796364m-23.272727 0a23.272727 23.272727 0 1 1 46.545454 0 23.272727 23.272727 0 1 1-46.545454 0ZM512 896C229.003636 896 0 666.996364 0 384s229.003636-512 512-512 512 229.003636 512 512S794.996364 896 512 896z m-87.505455-630.225455c-26.996364 0-48.407273 5.585455-75.403636 11.17091l-75.403636-37.236364 21.410909 64.232727c-53.992727 37.236364-85.643636 85.643636-85.643637 145.221818 0 102.4 96.814545 182.458182 215.04 182.458182 105.192727 0 198.283636-64.232727 216.901819-150.807273-6.516364 0.930909-13.963636 0.930909-20.48 0.93091-102.4 0-182.458182-76.334545-182.458182-170.356364 0-15.825455 2.792727-30.72 6.516363-44.683636-7.447273 0-13.963636-0.930909-20.48-0.93091z m314.647273-75.403636l15.825455-53.992727-58.647273 32.581818c-21.410909-5.585455-42.821818-11.170909-64.232727-11.170909-102.4 0-182.458182 69.818182-182.458182 155.461818s80.058182 155.461818 182.458182 155.461818c96.814545 0 182.458182-69.818182 182.458182-155.461818 0-47.476364-31.650909-90.298182-75.403637-122.88z"  horiz-adv-x="1024" />

    
    <glyph glyph-name="faxian" unicode="&#59206;" d="M755.2 660.48c-10.24-2.56-240.64-94.72-335.36-186.88-92.16-92.16-181.76-325.12-186.88-335.36-2.56-10.24-2.56-20.48 5.12-28.16 5.12-5.12 10.24-7.68 17.92-7.68 2.56 0 5.12 0 10.24 2.56 10.24 2.56 240.64 94.72 335.36 186.88 92.16 92.16 181.76 325.12 186.88 335.36 2.56 10.24 2.56 20.48-5.12 28.16-7.68 7.68-17.92 10.24-28.16 5.12z m-189.44-330.24c-58.88-58.88-186.88-120.32-261.12-151.04 33.28 74.24 92.16 202.24 151.04 261.12 58.88 58.88 186.88 120.32 261.12 151.04-30.72-74.24-92.16-202.24-151.04-261.12zM512 384m-51.2 0a51.2 51.2 0 1 1 102.4 0 51.2 51.2 0 1 1-102.4 0ZM512 896C230.4 896 0 665.6 0 384s230.4-512 512-512c107.52 0 209.92 33.28 296.96 94.72 10.24 7.68 15.36 23.04 5.12 35.84-7.68 10.24-23.04 15.36-35.84 5.12-76.8-53.76-168.96-84.48-266.24-84.48-253.44 0-460.8 207.36-460.8 460.8S258.56 844.8 512 844.8s460.8-207.36 460.8-460.8c0-97.28-30.72-189.44-87.04-268.8-7.68-10.24-5.12-28.16 5.12-35.84 10.24-7.68 28.16-5.12 35.84 5.12C990.72 174.08 1024 276.48 1024 384 1024 665.6 793.6 896 512 896z"  horiz-adv-x="1024" />

    
    <glyph glyph-name="renzheng" unicode="&#58895;" d="M865.24 685.957l-0.005 25.768-25.68 2.131c-163.422 13.563-313.236 89.85-314.718 90.612L512 811.09l-12.838-6.623c-1.489-0.769-150.87-77.015-314.717-90.612l-25.68-2.131-0.005-25.768c-0.031-164.221 0-353.89 0-353.885 0-42.448 9.577-87.979 27.694-131.673 17.67-42.613 43.491-83.614 74.67-118.571 32.91-36.896 70.456-66.199 111.597-87.096 44.829-22.77 91.689-34.314 139.278-34.314s94.449 11.545 139.278 34.314c41.141 20.896 78.688 50.199 111.597 87.096 31.18 34.957 57 75.958 74.671 118.571 18.117 43.693 27.694 89.225 27.694 131.668 0.001 0 0.032 189.67 0.001 353.891z m-56-353.886c0-142.973-132.588-315.654-297.24-315.654-164.652 0-297.24 172.682-297.24 315.659 0 0-0.028 170.806-0.004 328.579 81.834 9.797 157.425 32.708 208.375 51.108 41.201 14.879 72.454 28.89 88.87 36.66 16.416-7.77 47.669-21.78 88.87-36.66 50.949-18.4 126.54-41.311 208.374-51.108 0.023-157.773-0.005-328.578-0.005-328.584zM652.04 508.688L462.055 318.703l-90.1 90.05c-10.937 10.932-28.667 10.927-39.598-0.011-10.932-10.938-10.927-28.666 0.011-39.598l129.697-129.627L691.638 469.09c10.935 10.935 10.935 28.663 0 39.598-10.934 10.935-28.664 10.935-39.598 0z"  horiz-adv-x="1024" />

    
    <glyph glyph-name="kefu" unicode="&#58935;" d="M139.6 523.6v-232.7H46.5V523.6h93.1m0 46.6H46.5c-25.6 0-46.5-21-46.5-46.6v-232.7c0-25.6 20.9-46.5 46.5-46.5h93.1c25.6 0 46.5 20.9 46.5 46.5V523.6c0.1 25.6-20.9 46.6-46.5 46.6zM977.5 523.6v-232.7h-93.1V523.6h93.1m0 46.6h-93.1c-25.6 0-46.5-20.9-46.5-46.5V291c0-25.6 20.9-46.5 46.5-46.5h93.1c25.6 0 46.5 20.9 46.5 46.5V523.6c0 25.6-20.9 46.6-46.5 46.6zM512 104.7c51.3 0 93.1-41.8 93.1-93.1s-41.8-93.1-93.1-93.1-93.1 41.8-93.1 93.1 41.8 93.1 93.1 93.1m0 46.6c-77.1 0-139.6-62.5-139.6-139.6S434.9-128 512-128s139.6 62.5 139.6 139.6S589.1 151.3 512 151.3zM418.9 570.2h-93.1v-93.1h93.1v93.1zM698.2 570.2h-93.1v-93.1h93.1v93.1zM672.3 337.5c-32.3-55.4-91.7-93.1-160.3-93.1s-128 37.7-160.3 93.1h-52.8c35.9-82.1 117.7-139.6 213.1-139.6s177.1 57.5 213.1 139.6h-52.8zM117.5 570.2C175.2 732.6 330 849.5 512 849.5s336.8-116.8 394.5-279.3h49.6C896.8 759 720.4 896 512 896S127.2 759 67.9 570.2h49.6zM886.7 244.4c-48.2-96.6-132.4-171.8-235.1-208.3v-49.6C780.4 27 884.9 122 938.4 244.4h-51.7z"  horiz-adv-x="1024" />

    
    <glyph glyph-name="youhuiquan" unicode="&#58981;" d="M900.3614815999999 311.1822218666666c-48.54518506666667 24.272593066666666-63.10874026666667 43.690666666666665-63.108741333333334 82.52681493333333 0 36.40888853333333 14.5635552 55.8269632 63.108741333333334 82.52681493333333 26.699851733333333 16.990814933333333 29.127111466666666 31.554370133333336 29.127111466666666 55.8269632v138.35377813333335c0 43.690666666666665-36.40888853333333 80.0995552-80.09955626666667 80.0995552H160.04740693333332c-43.690666666666665 0-80.0995552-36.40888853333333-80.0995552-80.0995552v-138.35377813333335c0-21.845333333333333 2.427259733333333-41.26340693333333 29.127111466666666-55.8269632 19.4180736-9.7090368 63.10874026666667-33.981629866666665 63.10874026666667-82.52681493333333 0-53.399703466666665-31.554370133333336-70.3905184-60.6814816-80.0995552h-2.427258666666667c-26.699851733333333-16.990814933333333-29.127111466666666-43.690666666666665-29.127111466666666-55.8269632v-138.35377813333335c0-43.690666666666665 36.40888853333333-80.0995552 80.0995552-80.0995552h689.3416298666667c43.690666666666665 0 80.0995552 36.40888853333333 80.09955626666667 80.0995552v138.35377813333335c0 26.699851733333333-9.7090368 36.40888853333333-29.127111466666666 53.399703466666665z m-266.9985184 48.54518506666667c14.5635552 0 26.699851733333333-12.136296533333333 26.699851733333333-26.699851733333333s-12.136296533333333-26.699851733333333-26.699851733333333-26.699851733333333h-101.9448896v-101.94488853333334c0-14.5635552-12.136296533333333-26.699851733333333-26.699851733333333-26.699851733333333s-26.699851733333333 12.136296533333333-26.699851733333333 26.699851733333333v101.94488853333334h-101.94488853333334c-14.5635552 0-26.699851733333333 12.136296533333333-26.699851733333333 26.699851733333333s12.136296533333333 26.699851733333333 26.699851733333333 26.699851733333333h101.94488853333334v63.108741333333334h-109.22666666666667c-14.5635552 0-26.699851733333333 12.136296533333333-26.699851733333333 26.699851733333333s12.136296533333333 26.699851733333333 26.699851733333333 26.699851733333333h80.09955626666667l-84.95407466666667 84.95407466666667c-9.7090368 9.7090368-9.7090368 26.699851733333333 0 36.40888853333333 9.7090368 9.7090368 26.699851733333333 9.7090368 36.40888853333333 0l104.37214826666667-104.37214826666667 104.37214826666667 104.37214826666667c9.7090368 9.7090368 26.699851733333333 9.7090368 36.408889599999995 0 9.7090368-9.7090368 9.7090368-26.699851733333333 0-36.40888853333333l-84.95407466666667-84.95407466666667h77.67229653333334c14.5635552 0 26.699851733333333-12.136296533333333 26.699851733333333-26.699851733333333s-12.136296533333333-26.699851733333333-26.699851733333333-26.699851733333333h-109.22666666666667v-63.108741333333334h104.37214826666667z"  horiz-adv-x="1024" />

    
    <glyph glyph-name="daishouhuo" unicode="&#58944;" d="M114.133333 405.333333l-14.656-22.378666a21.333333 21.333333 0 0 1-3.477333-11.690667V170.666667a21.333333 21.333333 0 0 1 21.333333-21.333334h42.794667v-42.666666H117.333333a64 64 0 0 0-64 64v200.597333a64 64 0 0 0 10.453334 35.072l134.101333 204.736A64 64 0 0 0 251.434667 640h144.746666A149.376 149.376 0 0 0 544 768h277.333333a149.333333 149.333333 0 0 0 149.333334-149.333333v-362.666667a149.333333 149.333333 0 0 0-149.333334-149.333333v42.666666a106.666667 106.666667 0 0 1 106.666667 106.666667V618.666667a106.666667 106.666667 0 0 1-106.666667 106.666666h-277.333333a106.666667 106.666667 0 0 1-106.666667-106.666666v-469.333334h231.36v-42.666666h-338.773333v42.666666H394.666667V597.333333h-64v-170.666666a64 64 0 0 0-64-64h-170.666667v42.666666h18.133333z m0 0h152.533334a21.333333 21.333333 0 0 1 21.333333 21.333334v170.666666h-36.565333a21.333333 21.333333 0 0 1-17.856-9.642666L114.133333 405.333333zM245.333333 0a106.666667 106.666667 0 1 0 0 213.333333 106.666667 106.666667 0 0 0 0-213.333333z m0 42.666667a64 64 0 1 1 0 128 64 64 0 0 1 0-128zM757.333333 0a106.666667 106.666667 0 1 0 0 213.333333 106.666667 106.666667 0 0 0 0-213.333333z m0 42.666667a64 64 0 1 1 0 128 64 64 0 0 1 0-128z"  horiz-adv-x="1024" />

    
    <glyph glyph-name="qianbao1" unicode="&#58968;" d="M216.6 726.9h591.3c57.6 0 104.3-46.7 104.3-104.3V153c0-57.6-46.7-104.3-104.3-104.3H216.6c-57.6 0-104.3 46.7-104.3 104.3V622.5c0 57.7 46.7 104.4 104.3 104.4zM112.3 203.5V153c0-57.6 46.7-104.3 104.3-104.3h33.7c-57.5 39.6-105 92.8-138 154.8zM196.9 725c-48.2-9.2-84.6-51.6-84.6-102.5v-8.9c22.1 41.6 50.8 79.2 84.6 111.4zM912.3 153V267.6c-30.5-89.6-89.3-166.2-165.8-219h61.4c57.7 0 104.4 46.7 104.4 104.4zM912.3 549.5v73c0 57.6-46.7 104.3-104.3 104.3h-10c51.3-48.3 91-109 114.3-177.3zM912.3 267.6V549.5c-23.3 68.3-62.9 129-114.3 177.4h-86.6C800 657.9 857 550.1 857 429.1c0-208.3-168.9-377.2-377.2-377.2-179 0-328.8 124.6-367.5 291.8v-140.2c33-62 80.5-115.2 138-154.9h496.2c76.5 52.8 135.3 129.4 165.8 219zM248.2 726.9h-31.6c-6.8 0-13.4-0.6-19.8-1.9-33.8-32.2-62.5-69.8-84.6-111.4v-99.1c19.9 85.6 68.9 160.1 136 212.4zM479.8 51.9c208.3 0 377.2 168.9 377.2 377.2 0 121-57 228.8-145.6 297.8h-95.7c97.2-54.2 162.9-158.1 162.9-277.2 0-175.3-142.1-317.3-317.3-317.3s-317.4 142-317.4 317.3c0 119.2 65.7 223 162.9 277.2h-58.5c-67.1-52.3-116.1-126.8-135.9-212.4v-170.8C151 176.5 300.8 51.9 479.8 51.9zM143.9 449.7c0-175.3 142.1-317.3 317.3-317.3s317.3 142.1 317.3 317.3c0 119.2-65.7 223-162.9 277.2H462.1c133-10 237.9-121.1 237.9-256.7 0-142.2-115.3-257.4-257.4-257.4S185.1 328 185.1 470.2c0 135.6 104.8 246.7 237.9 256.7H306.7c-97.1-54.3-162.8-158.1-162.8-277.2zM185.1 470.2c0-142.2 115.3-257.4 257.4-257.4S700 328 700 470.2c0 135.6-104.8 246.7-237.9 256.7H423c-133-10-237.9-121.1-237.9-256.7zM424 688.3c109.1 0 197.5-88.4 197.5-197.5S533.1 293.2 424 293.2s-197.5 88.4-197.5 197.5S314.9 688.3 424 688.3zM424 293.2c109.1 0 197.5 88.4 197.5 197.5S533.1 688.3 424 688.3s-197.5-88.4-197.5-197.5S314.9 293.2 424 293.2z m-18.6 355.7c76 0 137.6-61.6 137.6-137.6s-61.6-137.6-137.6-137.6-137.6 61.6-137.6 137.6 61.5 137.6 137.6 137.6zM405.4 511.3m-137.6 0a137.6 137.6 0 1 1 275.2 0 137.6 137.6 0 1 1-275.2 0ZM807.9 708.9c47.6 0 86.3-38.7 86.3-86.3V153c0-47.6-38.7-86.3-86.3-86.3H216.6c-47.6 0-86.3 38.7-86.3 86.3V622.5c0 47.6 38.7 86.3 86.3 86.3l591.3 0.1m0 18H216.6c-57.6 0-104.3-46.7-104.3-104.3V153c0-57.6 46.7-104.3 104.3-104.3h591.3c57.6 0 104.3 46.7 104.3 104.3V622.5c0.1 57.7-46.6 104.4-104.3 104.4zM459.5 460.8c-28.8 0-52.2-23.4-52.2-52.2v-121.7c0-28.8 23.4-52.2 52.2-52.2h434.8V460.8H459.5z m60.9-173.9c-33.6 0-60.9 27.3-60.9 60.9 0 33.6 27.2 60.9 60.9 60.9 33.6 0 60.9-27.2 60.9-60.9-0.1-33.7-27.3-60.9-60.9-60.9zM171.7 583.4c-9.9 0-18 8.1-18 18v11c0 41 33.3 74.3 74.3 74.3h16.9c9.9 0 18-8.1 18-18s-8.1-18-18-18H228c-21.1 0-38.3-17.2-38.3-38.3v-11c0-10-8.1-18-18-18zM171.7 513.8c-9.9 0-18 8.1-18 18v10.5c0 9.9 8.1 18 18 18s18-8.1 18-18v-10.5c0-10-8.1-18-18-18z"  horiz-adv-x="1024" />

    
    <glyph glyph-name="sousuo" unicode="&#59266;" d="M949.76 11.6736a88.68864 88.68864 0 0 0-25.64096-62.67904 87.14752 87.14752 0 0 0-123.76576-0.16896l-164.29568 160.87552a382.4128 382.4128 0 0 0-26.43968-12.6208 382.83776 382.83776 0 0 0-300.032 0 383.38048 383.38048 0 0 0-122.48064 83.39968 391.296 391.296 0 0 0 0 550.36928 384.56832 384.56832 0 0 0 627.55328-123.648 391.00416 391.00416 0 0 0-40.704-376.57088l150.32832-156.56448a88.576 88.576 0 0 0 25.47712-62.39232z m-153.6512 444.04736c0 186.33216-150.41536 337.92-335.30368 337.92s-335.32928-151.6032-335.32928-337.92S275.89632 117.76 460.8 117.76s335.3088 151.64928 335.3088 337.96096z m-503.61344-168.90368a240.45568 240.45568 0 0 0 0 337.73568l34.63168-40.07424a183.46496 183.46496 0 0 1 0-257.50528z"  horiz-adv-x="1024" />

    
    <glyph glyph-name="shouhou" unicode="&#59147;" d="M573.282424-127.999592A510.164797 510.164797 0 0 0 210.433254 22.897352a21.612631 21.612631 0 0 0 30.651134 30.478243 468.300435 468.300435 0 1 1-129.668378 409.023462 21.611396 21.611396 0 1 0-42.617673 7.212032 511.980155 511.980155 0 1 0 504.484087-597.610681zM565.613466 405.209128L387.053934 620.96496a21.626216 21.626216 0 0 0 33.343297 27.551443l145.216235-175.509237 150.477065 181.832114a21.626216 21.626216 0 0 0 33.343297-27.551443zM712.719153 413.79194H413.283995a21.611396 21.611396 0 0 0 0 43.222792h299.435158a21.611396 21.611396 0 0 0 0-43.222792zM709.224282 285.025065H409.801473a21.611396 21.611396 0 0 0 0 43.222793H709.224282a21.611396 21.611396 0 1 0 0-43.222793zM559.512877 78.555959a21.611396 21.611396 0 0 0-21.611396 21.611397V456.347866a21.611396 21.611396 0 0 0 43.222793 0v-356.229908a21.611396 21.611396 0 0 0-21.611397-21.561999zM559.512877 78.555959a21.611396 21.611396 0 0 0-21.611396 21.611397V456.347866a21.611396 21.611396 0 0 0 43.222793 0v-356.229908a21.611396 21.611396 0 0 0-21.611397-21.561999zM0 482.503831l57.424567-227.833515 137.078 196.354972z"  horiz-adv-x="1086" />

    
    <glyph glyph-name="daifahuo" unicode="&#58881;" d="M60.235294 835.764706v-903.529412h933.647059V835.764706H60.235294z m0 60.235294h933.647059a60.235294 60.235294 0 0 0 60.235294-60.235294v-903.529412a60.235294 60.235294 0 0 0-60.235294-60.235294H60.235294a60.235294 60.235294 0 0 0-60.235294 60.235294V835.764706a60.235294 60.235294 0 0 0 60.235294 60.235294z m361.411765-60.235294v-378.75953l102.761412 37.044706a60.235294 60.235294 0 0 0 41.562353-0.271058L662.588235 457.577412V835.764706h-240.941176z m0 60.235294h240.941176a60.235294 60.235294 0 0 0 60.235294-60.235294v-378.187294a60.235294 60.235294 0 0 0-81.377882-56.410353l-96.587294 36.231529-102.791529-37.044706A60.235294 60.235294 0 0 0 361.411765 456.944941V835.764706a60.235294 60.235294 0 0 0 60.235294 60.235294zM0 594.823529V655.058824h391.529412v-60.235295H0z m662.588235 0V655.058824h331.294118v-60.235295H662.588235z"  horiz-adv-x="1054" />

    
    <glyph glyph-name="icon-test" unicode="&#58888;" d="M379.408 636.012h257.654c31.723 0 51.032 14.129 61.691 25.93 13.354 14.857 20.707 34.679 20.707 55.742 0 40.629-28.316 81.828-82.398 81.828h-30.02v6.883c0 43.892-36.91 79.605-82.298 79.605h-30.953c-45.338 0-82.341-35.713-82.341-79.605v-6.883h-32.043c-53.982 0-82.134-41.298-82.134-82.084 0.001-40.476 28.153-81.416 82.135-81.416z m0 121.681h52.949c11.542 0 20.913 9.316 20.913 20.913V806.395c0 20.863 18.163 37.836 40.522 37.836h30.953c22.359 0 40.53-16.973 40.53-37.836v-27.789c0-11.597 9.361-20.913 20.904-20.913h50.883c29.963 0 40.572-21.533 40.572-40.009 0-10.61-3.62-20.756-9.983-27.793-7.197-8.023-17.442-12.109-30.589-12.109H379.408c-13.089 0-23.343 4.033-30.433 12.006-6.313 6.934-9.939 17.08-9.939 27.64 0 14.956 8.493 40.265 40.372 40.265zM866.137 761.419h-84.828c-11.543 0-20.913-9.315-20.913-20.909 0-11.489 9.37-20.859 20.913-20.859h63.922v-797.226H173.256V719.6510000000001h63.145c11.543 0 20.913 9.37 20.913 20.859 0 11.594-9.37 20.909-20.913 20.909H152.4c-11.543 0-20.906-9.315-20.906-20.909v-838.94c0-11.543 9.363-20.91 20.906-20.91h713.736c11.593 0 20.913 9.367 20.913 20.91V740.51a20.853 20.853 0 0 1-20.912 20.909zM690.162 460.966l-259.458-314.12-90.214 99.378c-7.767 8.593-20.963 9.214-29.506 1.447-8.536-7.761-9.206-20.96-1.447-29.5l106.418-117.283c3.983-4.347 9.569-6.834 15.47-6.834h0.47a20.68 20.68 0 0 1 15.626 7.56l274.891 332.75c7.347 8.9 6.057 22.046-2.851 29.399-8.95 7.4-22.046 6.157-29.399-2.797zM509.062 773.789c5.9 0 11.287 2.536 15.063 6.263 3.775 3.777 6.264 9.214 6.264 14.597 0 5.487-2.488 10.869-6.264 15.113-7.916 7.453-21.74 7.453-29.656 0-3.727-3.83-5.85-9.213-5.85-15.113 0-5.383 2.123-10.82 5.85-14.597 3.777-3.727 9.156-6.263 14.593-6.263z"  horiz-adv-x="1024" />

    
    <glyph glyph-name="zhifuanquan" unicode="&#58928;" d="M87.648317 353.584158a450.762772 450.762772 0 1 1 901.525544-2.737425A450.762772 450.762772 0 1 1 87.648317 353.584158zM512-122.930693h-1.571485A506.930693 506.930693 0 0 0 154.664554 743.565941 503.58495 503.58495 0 0 0 512 890.930693h1.571485A506.930693 506.930693 0 0 0 1018.930693 382.428515 507.53901 507.53901 0 0 0 512-122.930693z m0 993.989703a487.05901 487.05901 0 0 1-345.473267-830.403168 483.865347 483.865347 0 0 1 343.952475-143.714852h1.520792a487.05901 487.05901 0 0 1 1.470099 974.11802z m496.792079-488.579802zM792.890297 575.771881C521.023366 703.366337 512.963168 705.191287 512.963168 705.191287s-8.009505-1.82495-280.636831-127.695841l-0.811089-271.51208c-0.304158-101.386139 195.421782-257.774257 279.470891-258.027722s280.788911 154.91802 281.093069 256.304158zM511.138218 35.535842c-43.59604 0-114.059406 37.107327-179.504159 94.137029-101.386139 88.611485-112.437228 152.839604-112.335841 176.310495l0.811089 271.51208a12.419802 12.419802 0 0 0 6.995643 11.304554c173.927921 80.196436 277.037624 126.986139 282.867327 128.456238a12.470495 12.470495 0 0 0 6.032475 0c5.829703-1.470099 108.685941-48.918812 282.106931-130.179802a12.419802 12.419802 0 0 0 7.147723-11.304555l-0.811089-271.512079c0-23.470891-11.253861-87.648317-113.451089-175.651485-65.647525-56.573465-136.212277-93.072475-179.85901-93.072475zM244.695446 569.536634l-0.81109-263.603961c0-41.213465 39.64198-101.386139 103.819406-157.503366 59.310891-51.706931 126.428515-87.901782 163.231684-88.053861 36.853861 0 104.072871 35.738614 163.637227 87.04 64.532277 55.762376 104.681188 115.681584 104.833268 157.148514l0.811089 263.603961c-202.772277 95.049505-254.529901 118.216238-267.507327 123.843168-12.774653-5.829703-64.532277-28.692277-268.014257-122.474455zM709.70297 516.917228c-191.518416 89.726733-197.145347 91.247525-197.145346 91.247524s-5.626931-1.419406-197.702971-89.929504L314.29703 326.868911c0-71.426535 137.631683-181.582574 196.891881-181.785347s197.70297 109.142178 198.007129 180.568713zM511.391683 132.663762c-38.32396 0-93.376634 36.296238-128.861782 67.21901-24.231287 21.13901-80.551287 76.039604-80.399208 126.986139l0.608317 191.26495a12.419802 12.419802 0 0 0 7.198416 11.253862c88.104554 40.554455 194.306535 89.321188 199.882772 90.689901a12.267723 12.267723 0 0 0 6.032475 0c5.626931-1.419406 111.524752-50.693069 199.375842-91.957228a12.419802 12.419802 0 0 0 7.147723-11.304554l-0.608317-191.264951c0-51.2-56.826931-105.54297-81.108911-126.732673-35.789307-30.365149-90.943366-66.154455-129.267327-66.154456z m-184.015841 377.511288l-0.557624-183.306139c0-27.982574 27.475644-69.449505 71.882772-108.17901 41.162772-35.890693 87.496238-60.831683 112.589307-61.085149 25.346535 0 71.527921 24.839604 112.842772 60.426139 44.660594 38.47604 72.491089 79.740198 72.541782 107.773465l0.557624 183.306139C562.693069 572.172673 523.659406 589.712475 512.608317 594.57901c-11.051089-4.765149-50.034059-22.102178-185.232475-84.40396zM485.183366 293.208713l-83.947722 80.196436a5.77901 5.77901 0 0 0-1.824951 4.258217 5.576238 5.576238 0 0 0 1.875644 4.156832l33.153267 31.328317a6.032475 6.032475 0 0 0 8.161584 0l42.93703-41.010693a6.133861 6.133861 0 0 1 4.106138-1.622178 6.285941 6.285941 0 0 1 4.055446 1.571485l104.985347 99.054257a6.083168 6.083168 0 0 0 4.106138 1.622178 6.184554 6.184554 0 0 0 4.156832-1.622178L639.746535 439.762376a5.77901 5.77901 0 0 0 1.82495-4.207525 5.576238 5.576238 0 0 0-1.875643-4.156831l-146.300198-138.189307a6.133861 6.133861 0 0 0-4.055446-1.622178 6.032475 6.032475 0 0 0-4.106139 1.622178M489.340198 279.166733a18.350891 18.350891 0 0 0-12.622574 5.069307l-84.099802 80.196435a18.300198 18.300198 0 0 0-5.677624 13.281584 17.945347 17.945347 0 0 0 6.133861 13.433664L425.821782 422.121188a18.300198 18.300198 0 0 0 12.571881 5.069307 18.300198 18.300198 0 0 0 12.571882-5.069307l38.526732-36.803168L590.11802 480.316832a18.65505 18.65505 0 0 0 12.571881 5.069307 18.553663 18.553663 0 0 0 12.470495-5.069307l33.102574-31.683169a18.300198 18.300198 0 0 0 5.677624-13.281584 17.99604 17.99604 0 0 0-6.083168-13.484356L501.861386 284.134653a18.65505 18.65505 0 0 0-12.521188-4.96792z m-74.468119 98.395247l74.468119-70.970297 136.871287 129.013862-23.420198 22.406336-100.625742-94.998812a18.908515 18.908515 0 0 0-12.571882-5.069307 18.50297 18.50297 0 0 0-12.419802 5.069307l-38.628118 36.955248z m-4.765148-4.511683l-0.304159-0.253465z m-0.304159 9.378218z m221.376634 48.209109z m0 9.631683z"  horiz-adv-x="1024" />

    
    <glyph glyph-name="yinhangzhanghu" unicode="&#58892;" d="M918.747429 896H220.745143A205.897143 205.897143 0 0 1 15.36 690.688v-574.902857a205.897143 205.897143 0 0 1 205.312-205.312h698.002286a205.897143 205.897143 0 0 1 205.312 205.312v574.902857A205.897143 205.897143 0 0 1 918.747429 896zM220.745143 813.860571h698.002286a123.611429 123.611429 0 0 0 123.245714-123.172571V608.548571H97.499429V690.688a123.611429 123.611429 0 0 0 123.245714 123.172571zM918.674286-7.314286H220.745143a123.611429 123.611429 0 0 0-123.245714 123.172572V526.409143h944.493714v-410.624a123.611429 123.611429 0 0 0-123.245714-123.172572zM261.851429 280.137143a41.179429 41.179429 0 0 1-41.033143-41.033143v-82.139429c0-22.601143 18.432-41.106286 40.96-41.106285a41.179429 41.179429 0 0 1 41.106285 41.106285V239.030857a41.179429 41.179429 0 0 1-41.033142 40.96z m164.278857 0a41.179429 41.179429 0 0 1-41.106286-41.033143v-82.139429c0-22.601143 18.505143-41.106286 41.106286-41.106285a41.179429 41.179429 0 0 1 41.033143 41.106285V239.030857a41.179429 41.179429 0 0 1-41.033143 40.96z m164.205714 0a41.179429 41.179429 0 0 1-41.033143-41.033143v-82.139429c0-22.601143 18.432-41.106286 41.033143-41.106285a41.179429 41.179429 0 0 1 41.106286 41.106285V239.030857a41.179429 41.179429 0 0 1-41.106286 40.96z"  horiz-adv-x="1170" />

    
    <glyph glyph-name="queren" unicode="&#58904;" d="M512 822.857143A438.857143 438.857143 0 1 0 73.142857 384 438.857143 438.857143 0 0 0 512 822.857143m0 73.142857a512 512 0 1 1 512-512A512 512 0 0 1 512 896zM744.777143 513.28l-310.857143-310.857143a18.285714 18.285714 0 0 0-25.965714 0l-129.28 129.28a18.285714 18.285714 0 0 0 0 25.965714L305.188571 384a18.285714 18.285714 0 0 0 25.782858 0l85.394285-85.394286a7.314286 7.314286 0 0 1 10.24 0L693.028571 565.028571a18.285714 18.285714 0 0 0 25.782858 0l25.965714-25.782857a18.285714 18.285714 0 0 0 0-25.965714z"  horiz-adv-x="1024" />

    
    <glyph glyph-name="lijiqueren" unicode="&#59234;" d="M512-128C230.4-128 0 102.4 0 384S230.4 896 512 896s512-230.4 512-512-230.4-512-512-512z m286.72 701.44c-25.6 25.6-35.84 25.6-61.44 0l-307.2-250.88-112.64 102.4c-25.6 25.6-66.56 25.6-92.16 0s-25.6-61.44 0-81.92l158.72-143.36c15.36-15.36 30.72-20.48 46.08-20.48 15.36 0 35.84 5.12 46.08 15.36l322.56 322.56c25.6 25.6 25.6 30.72 0 56.32z"  horiz-adv-x="1024" />

    
    <glyph glyph-name="xiaoxi" unicode="&#58885;" d="M727.552 682.624l2.176-0.085333 2.176-0.128 2.133333-0.170667 2.176-0.256 2.133334-0.298667 2.090666-0.341333 2.090667-0.426667 2.090667-0.426666 2.048-0.512 2.048-0.554667 2.005333-0.597333 1.962667-0.64 2.005333-0.682667 1.92-0.768 1.92-0.768 1.92-0.853333 1.877333-0.853334 1.877334-0.938666 1.792-0.938667 1.834666-1.024 1.749334-1.066667 1.749333-1.066666 1.706667-1.152 1.706666-1.152 1.664-1.194667 1.621334-1.28 1.578666-1.28 1.578667-1.322667 1.536-1.365333 1.493333-1.365333 1.450667-1.450667 1.450667-1.450667 1.365333-1.493333 1.365333-1.536 1.322667-1.578667 1.28-1.578666 1.28-1.621334 1.194667-1.664 1.152-1.706666 1.152-1.706667 1.066666-1.749333 1.066667-1.749334 1.024-1.834666 0.938667-1.792 0.938666-1.877334 0.853334-1.877333 0.853333-1.92 0.768-1.92 0.768-1.92 0.682667-2.005333 0.64-1.962667 0.597333-2.005333 0.554667-2.048 0.512-2.048 0.426666-2.090667 0.426667-2.090667 0.341333-2.090666 0.298667-2.133334 0.256-2.176 0.170667-2.133333 0.128-2.176 0.085333-2.176L810.666667 597.333333v-341.333333l-0.042667-2.218667-0.085333-2.176-0.128-2.176-0.170667-2.133333-0.256-2.176-0.298667-2.133333-0.341333-2.090667-0.426667-2.090667-0.426666-2.090666-0.512-2.048-0.554667-2.048-0.597333-2.005334-0.64-1.962666-0.682667-2.005334-0.768-1.92-0.768-1.92-0.853333-1.92-0.853334-1.877333-0.938666-1.877333-0.938667-1.792-1.024-1.834667-1.066667-1.749333-1.066666-1.749334-1.152-1.706666-1.152-1.706667-1.194667-1.664-1.28-1.621333-1.28-1.578667-1.322667-1.578667-1.365333-1.536-1.365333-1.493333-1.450667-1.450667-1.450667-1.450666-1.493333-1.365334-1.536-1.365333-1.578667-1.322667-1.578666-1.28-1.621334-1.28-1.664-1.194666-1.706666-1.152-1.706667-1.152-1.749333-1.066667-1.749334-1.066667-1.834666-1.024-1.792-0.938666-1.877334-0.938667-1.877333-0.853333-1.92-0.853334-1.92-0.768-1.92-0.768-2.005333-0.682666-1.962667-0.64-2.005333-0.597334-2.048-0.554666-2.048-0.512-2.090667-0.426667-2.090667-0.426667-2.090666-0.341333-2.133334-0.298667-2.176-0.256-2.133333-0.170666-2.176-0.128-2.176-0.085334L725.333333 170.66666699999996h-256l-213.333333-170.666667v170.666667H213.333333l-2.133333 0.042666-2.090667 0.042667-2.133333 0.170667-2.090667 0.170666-2.090666 0.213334-2.048 0.298666-2.090667 0.341334-2.048 0.384-2.048 0.426666-2.005333 0.469334-2.048 0.554666-2.005334 0.554667-1.962666 0.64-1.962667 0.682667-1.962667 0.725333-1.92 0.768-1.92 0.810667-1.92 0.896-1.834666 0.896-1.877334 0.981333-1.834666 0.981333-1.792 1.066667-1.792 1.066667-1.749334 1.152-1.706666 1.194666-1.706667 1.194667-1.664 1.28-1.664 1.322667-1.578667 1.365333-1.578666 1.365333-1.578667 1.450667-1.493333 1.493333-1.493334 1.493334-1.450666 1.578666-1.365334 1.578667-1.365333 1.578667-1.322667 1.664-1.28 1.664-1.194666 1.706666-1.194667 1.706667-1.152 1.749333-1.066667 1.792-1.066666 1.792-0.981334 1.834667-0.981333 1.877333-0.896 1.834667-0.896 1.92-0.810667 1.92-0.768 1.92-0.725333 1.962667-0.682667 1.962666-0.64 1.962667-0.554666 2.005333-0.554667 2.005334-0.469333 2.048-0.426667 2.048-0.384 2.048-0.341333 2.090666-0.298667 2.048-0.213333 2.090667-0.170667 2.090667-0.170667 2.133333-0.042666 2.090667L128 256V597.333333l0.042667 2.218667 0.085333 2.176 0.128 2.176 0.170667 2.133333 0.256 2.176 0.298666 2.133334 0.341334 2.090666 0.426666 2.090667 0.426667 2.090667 0.512 2.048 0.554667 2.048 0.597333 2.005333 0.64 1.962667 0.682667 2.005333 0.768 1.92 0.768 1.92 0.853333 1.92 0.853333 1.877333 0.938667 1.877334 0.938667 1.792 1.024 1.834666 1.066666 1.749334 1.066667 1.749333 1.152 1.706667 1.152 1.706666 1.194667 1.664 1.28 1.621334 1.28 1.578666 1.322666 1.578667 1.365334 1.536 1.365333 1.493333 1.450667 1.450667 1.450666 1.450667 1.493334 1.365333 1.536 1.365333 1.578666 1.322667 1.578667 1.28 1.621333 1.28 1.664 1.194667 1.706667 1.152 1.706667 1.152 1.749333 1.066666 1.749333 1.066667 1.834667 1.024 1.792 0.938667 1.877333 0.938666 1.877334 0.853334 1.92 0.853333 1.92 0.768 1.92 0.768 2.005333 0.682667 1.962667 0.64 2.005333 0.597333 2.048 0.554667 2.048 0.512 2.090667 0.426666 2.090666 0.426667 2.090667 0.341333 2.133333 0.298667 2.176 0.256 2.133334 0.170667 2.176 0.128 2.176 0.085333L213.333333 682.666667h512l2.218667-0.042667zM213.589333 640h-1.365333l-1.109333-0.042667-1.109334-0.085333-1.066666-0.085333-1.109334-0.128-1.066666-0.170667-1.024-0.170667-1.066667-0.170666-1.024-0.256-1.024-0.256-0.981333-0.256-1.024-0.298667-0.981334-0.298667-0.981333-0.341333-0.981333-0.384-0.938667-0.384-0.938667-0.426667-0.938666-0.426666-0.938667-0.469334-0.896-0.469333-0.896-0.512-0.896-0.512-0.853333-0.554667-0.853334-0.554666-0.853333-0.597334-0.853333-0.597333-0.810667-0.64-0.810667-0.64-0.768-0.682667-0.768-0.682666-0.768-0.682667-0.725333-0.725333-0.725333-0.725334-0.682667-0.768-0.682667-0.768-0.682666-0.768-0.64-0.810666-0.64-0.810667-0.597334-0.853333-0.597333-0.853334-0.554667-0.853333-0.554666-0.853333-0.512-0.896-0.512-0.896-0.469334-0.896-0.469333-0.938667-0.426667-0.938667-0.426666-0.938666-0.384-0.981334-0.384-0.938666-0.341334-0.981334-0.298666-0.981333-0.298667-1.024-0.256-0.981333-0.256-1.024-0.256-1.024-0.170667-1.066667-0.170666-1.024-0.170667-1.066667-0.128-1.109333-0.085333-1.066667-0.085334-1.109333L170.666667 598.442667v-343.509334l0.042666-1.066666 0.085334-1.024 0.085333-1.066667 0.128-1.024 0.128-1.066667 0.170667-1.024 0.170666-1.024 0.256-1.024 0.213334-1.024 0.256-0.981333 0.298666-1.024 0.341334-0.981333 0.341333-0.981334 0.341333-0.981333 0.384-0.981333 0.426667-0.938667 0.426667-0.938667 0.469333-0.938666 0.469333-0.938667 0.512-0.896 0.512-0.896 0.554667-0.896 0.554667-0.896 0.597333-0.853333 0.597333-0.853334 0.64-0.810666 0.682667-0.853334 0.64-0.810666 0.725333-0.768 0.725334-0.768 0.725333-0.768 0.768-0.725334 0.768-0.725333 0.768-0.725333 0.810667-0.682667 0.853333-0.64 0.810667-0.64 0.853333-0.597333 0.853333-0.597334 0.896-0.554666 0.896-0.554667 0.896-0.512 0.896-0.512 0.938667-0.469333 0.938667-0.469334 0.938666-0.426666 0.938667-0.426667 0.981333-0.384 0.981334-0.341333 0.981333-0.341334 0.981333-0.341333 1.024-0.298667 0.981334-0.256 1.024-0.213333 1.024-0.256 1.024-0.170667 1.024-0.170666 1.066666-0.128 1.024-0.128 1.066667-0.085334 1.024-0.085333 1.066667-0.042667H298.666667v-124.544L454.357333 213.33333300000004h272.085334l1.109333 0.042667 1.109333 0.085333 1.066667 0.085334 1.109333 0.128 1.066667 0.170666 1.024 0.170667 1.066667 0.170667 1.024 0.256 1.024 0.256 0.981333 0.256 1.024 0.298666 0.981333 0.298667 0.981334 0.341333 0.981333 0.384 0.938667 0.384 0.938666 0.426667 0.938667 0.426667 0.938667 0.469333 0.896 0.469333 0.896 0.512 0.896 0.512 0.853333 0.554667 0.853333 0.554667 0.853334 0.597333 0.853333 0.597333 0.810667 0.64 0.810666 0.64 0.768 0.682667 0.768 0.682667 0.768 0.682666 0.725334 0.725334 0.725333 0.725333 0.682667 0.768 0.682666 0.768 0.682667 0.768 0.64 0.810667 0.64 0.810666 0.597333 0.853334 0.597334 0.853333 0.554666 0.853333 0.554667 0.853334 0.512 0.896 0.512 0.896 0.469333 0.896 0.469334 0.938666 0.426666 0.938667 0.426667 0.938667 0.384 0.981333 0.384 0.938667 0.341333 0.981333 0.298667 0.981333 0.298667 1.024 0.298666 0.981334 0.213334 1.024 0.256 1.024 0.170666 1.066666 0.170667 1.024 0.170667 1.066667 0.128 1.109333 0.085333 1.066667 0.085333 1.109333 0.042667 1.109334V598.442667l-0.042667 1.109333-0.085333 1.109333-0.085333 1.066667-0.128 1.109333-0.170667 1.066667-0.170667 1.024-0.170666 1.066667-0.256 1.024-0.213334 1.024-0.298666 0.981333-0.298667 1.024-0.298667 0.981333-0.341333 0.981334-0.384 0.938666-0.384 0.981334-0.426667 0.938666-0.426666 0.938667-0.469334 0.938667-0.469333 0.896-0.512 0.896-0.512 0.896-0.554667 0.853333-0.554666 0.853333-0.597334 0.853334-0.597333 0.853333-0.64 0.810667-0.64 0.810666-0.682667 0.768-0.682666 0.768-0.682667 0.768-0.725333 0.725334-0.725334 0.725333-0.768 0.682667-0.768 0.682666-0.768 0.682667-0.810666 0.64-0.810667 0.64-0.853333 0.597333-0.853334 0.597334-0.853333 0.554666-0.853333 0.554667-0.896 0.512-0.896 0.512-0.896 0.469333-0.938667 0.469334-0.938667 0.426666-0.938666 0.426667-0.981334 0.384-0.938666 0.384-0.981334 0.341333-0.981333 0.298667-1.024 0.298667-0.981333 0.256-1.024 0.256-1.024 0.256-1.066667 0.170666-1.024 0.170667-1.066667 0.170667-1.109333 0.128-1.066667 0.085333-1.109333 0.085333L726.442667 640H213.589333zM792.32 767.9573330000001c54.485333-2.048 101.546667-48.768 103.637333-103.637333 1.664-128.981333 0.042667-258.005333 0.042667-386.986667-2.090667-39.808-41.386667-24.234667-42.666667 0 0 129.194667 4.821333 258.432-0.085333 387.541334a65.92 65.92 0 0 1-60.373333 60.373333C621.141333 731.7760000000001 449.194667 725.333333 277.333333 725.333333c-39.808 2.090667-24.234667 41.386667 0 42.666667 171.648 0 343.338667 2.133333 514.986667-0.042667zM298.666667 426.666667m-42.666667 0a42.666667 42.666667 0 1 1 85.333333 0 42.666667 42.666667 0 1 1-85.333333 0ZM300.842667 469.290667l2.176-0.170667 2.133333-0.298667 2.090667-0.341333 2.090666-0.512 2.005334-0.554667 2.005333-0.682666 1.92-0.768 1.877333-0.853334 1.834667-0.938666 1.792-1.024 1.749333-1.109334 1.664-1.194666 1.621334-1.237334 1.536-1.365333 1.493333-1.408 1.408-1.493333 1.365333-1.536 1.237334-1.621334 1.194666-1.664 1.109334-1.749333 1.024-1.792 0.938666-1.834667 0.853334-1.877333 0.768-1.92 0.682666-2.005333 0.554667-2.005334 0.512-2.090666 0.341333-2.090667 0.298667-2.133333 0.170667-2.176L341.333333 426.666667l-0.042666-2.176-0.170667-2.176-0.298667-2.133334-0.341333-2.090666-0.512-2.090667-0.554667-2.005333-0.682666-2.005334-0.768-1.92-0.853334-1.877333-0.938666-1.834667-1.024-1.792-1.109334-1.749333-1.194666-1.664-1.237334-1.621333-1.365333-1.536-1.408-1.493334-1.493333-1.408-1.536-1.365333-1.621334-1.237333-1.664-1.194667-1.749333-1.109333-1.792-1.024-1.834667-0.938667-1.877333-0.853333-1.92-0.768-2.005333-0.682667-2.005334-0.554667-2.090666-0.512-2.090667-0.341333-2.133333-0.298667-2.176-0.170666L298.666667 384l-2.176 0.042667-2.176 0.170666-2.133334 0.298667-2.090666 0.341333-2.090667 0.512-2.005333 0.554667-2.005334 0.682667-1.92 0.768-1.877333 0.853333-1.834667 0.938667-1.792 1.024-1.749333 1.109333-1.664 1.194667-1.621333 1.237333-1.536 1.365333-1.493334 1.408-1.408 1.493334-1.365333 1.536-1.237333 1.621333-1.194667 1.664-1.109333 1.749333-1.024 1.792-0.938667 1.834667-0.853333 1.877333-0.768 1.92-0.682667 2.005334-0.554667 2.005333-0.512 2.090667-0.341333 2.090666-0.298667 2.133334-0.170666 2.176L256 426.666667l0.042667 2.176 0.170666 2.176 0.298667 2.133333 0.341333 2.090667 0.512 2.090666 0.554667 2.005334 0.682667 2.005333 0.768 1.92 0.853333 1.877333 0.938667 1.834667 1.024 1.792 1.109333 1.749333 1.194667 1.664 1.237333 1.621334 1.365333 1.536 1.408 1.493333 1.493334 1.408 1.536 1.365333 1.621333 1.237334 1.664 1.194666 1.749333 1.109334 1.792 1.024 1.834667 0.938666 1.877333 0.853334 1.92 0.768 2.005334 0.682666 2.005333 0.554667 2.090667 0.512 2.090666 0.341333 2.133334 0.298667 2.176 0.170667L298.666667 469.333333l2.176-0.042666zM298.666667 426.666667zM467.285333 426.666667m-42.666666 0a42.666667 42.666667 0 1 1 85.333333 0 42.666667 42.666667 0 1 1-85.333333 0ZM469.461333 469.290667l2.176-0.170667 2.133334-0.298667 2.090666-0.341333 2.090667-0.512 2.005333-0.554667 2.005334-0.682666 1.92-0.768 1.877333-0.853334 1.834667-0.938666 1.792-1.024 1.749333-1.109334 1.664-1.194666 1.621333-1.237334 1.536-1.365333 1.493334-1.408 1.408-1.493333 1.365333-1.536 1.237333-1.621334 1.194667-1.664 1.109333-1.749333 1.024-1.792 0.938667-1.834667 0.853333-1.877333 0.768-1.92 0.682667-2.005333 0.554667-2.005334 0.512-2.090666 0.341333-2.090667 0.298667-2.133333 0.170666-2.176L509.952 426.666667l-0.042667-2.176-0.170666-2.176-0.298667-2.133334-0.341333-2.090666-0.512-2.090667-0.554667-2.005333-0.682667-2.005334-0.768-1.92-0.853333-1.877333-0.938667-1.834667-1.024-1.792-1.109333-1.749333-1.194667-1.664-1.237333-1.621333-1.365333-1.536-1.408-1.493334-1.493334-1.408-1.536-1.365333-1.621333-1.237333-1.664-1.194667-1.749333-1.109333-1.792-1.024-1.834667-0.938667-1.877333-0.853333-1.92-0.768-2.005334-0.682667-2.005333-0.554667-2.090667-0.512-2.090666-0.341333-2.133334-0.298667-2.176-0.170666L467.285333 384l-2.176 0.042667-2.176 0.170666-2.133333 0.298667-2.090667 0.341333-2.090666 0.512-2.005334 0.554667-2.005333 0.682667-1.92 0.768-1.877333 0.853333-1.834667 0.938667-1.792 1.024-1.749333 1.109333-1.664 1.194667-1.621334 1.237333-1.536 1.365333-1.493333 1.408-1.408 1.493334-1.365333 1.536-1.237334 1.621333-1.194666 1.664-1.109334 1.749333-1.024 1.792-0.938666 1.834667-0.853334 1.877333-0.768 1.92-0.682666 2.005334-0.554667 2.005333-0.512 2.090667-0.341333 2.090666-0.298667 2.133334-0.170667 2.176L424.618667 426.666667l0.042666 2.176 0.170667 2.176 0.298667 2.133333 0.341333 2.090667 0.512 2.090666 0.554667 2.005334 0.682666 2.005333 0.768 1.92 0.853334 1.877333 0.938666 1.834667 1.024 1.792 1.109334 1.749333 1.194666 1.664 1.237334 1.621334 1.365333 1.536 1.408 1.493333 1.493333 1.408 1.536 1.365333 1.621334 1.237334 1.664 1.194666 1.749333 1.109334 1.792 1.024 1.834667 0.938666 1.877333 0.853334 1.92 0.768 2.005333 0.682666 2.005334 0.554667 2.090666 0.512 2.090667 0.341333 2.133333 0.298667 2.176 0.170667L467.285333 469.333333l2.176-0.042666zM467.285333 426.666667zM640 426.666667m-42.666667 0a42.666667 42.666667 0 1 1 85.333334 0 42.666667 42.666667 0 1 1-85.333334 0ZM642.176 469.290667l2.176-0.170667 2.133333-0.298667 2.090667-0.341333 2.090667-0.512 2.005333-0.554667 2.005333-0.682666 1.92-0.768 1.877334-0.853334 1.834666-0.938666 1.792-1.024 1.749334-1.109334 1.664-1.194666 1.621333-1.237334 1.536-1.365333 1.493333-1.408 1.408-1.493333 1.365334-1.536 1.237333-1.621334 1.194667-1.664 1.109333-1.749333 1.024-1.792 0.938667-1.834667 0.853333-1.877333 0.768-1.92 0.682667-2.005333 0.554666-2.005334 0.512-2.090666 0.341334-2.090667 0.298666-2.133333 0.170667-2.176L682.666667 426.666667l-0.042667-2.176-0.170667-2.176-0.298666-2.133334-0.341334-2.090666-0.512-2.090667-0.554666-2.005333-0.682667-2.005334-0.768-1.92-0.853333-1.877333-0.938667-1.834667-1.024-1.792-1.109333-1.749333-1.194667-1.664-1.237333-1.621333-1.365334-1.536-1.408-1.493334-1.493333-1.408-1.536-1.365333-1.621333-1.237333-1.664-1.194667-1.749334-1.109333-1.792-1.024-1.834666-0.938667-1.877334-0.853333-1.92-0.768-2.005333-0.682667-2.005333-0.554667-2.090667-0.512-2.090667-0.341333-2.133333-0.298667-2.176-0.170666L640 384l-2.176 0.042667-2.176 0.170666-2.133333 0.298667-2.090667 0.341333-2.090667 0.512-2.005333 0.554667-2.005333 0.682667-1.92 0.768-1.877334 0.853333-1.834666 0.938667-1.792 1.024-1.749334 1.109333-1.664 1.194667-1.621333 1.237333-1.536 1.365333-1.493333 1.408-1.408 1.493334-1.365334 1.536-1.237333 1.621333-1.194667 1.664-1.109333 1.749333-1.024 1.792-0.938667 1.834667-0.853333 1.877333-0.768 1.92-0.682667 2.005334-0.554666 2.005333-0.512 2.090667-0.341334 2.090666-0.298666 2.133334-0.170667 2.176L597.333333 426.666667l0.042667 2.176 0.170667 2.176 0.298666 2.133333 0.341334 2.090667 0.512 2.090666 0.554666 2.005334 0.682667 2.005333 0.768 1.92 0.853333 1.877333 0.938667 1.834667 1.024 1.792 1.109333 1.749333 1.194667 1.664 1.237333 1.621334 1.365334 1.536 1.408 1.493333 1.493333 1.408 1.536 1.365333 1.621333 1.237334 1.664 1.194666 1.749334 1.109334 1.792 1.024 1.834666 0.938666 1.877334 0.853334 1.92 0.768 2.005333 0.682666 2.005333 0.554667 2.090667 0.512 2.090667 0.341333 2.133333 0.298667 2.176 0.170667L640 469.333333l2.176-0.042666zM640 426.666667z"  horiz-adv-x="1024" />

    
    <glyph glyph-name="qianbao" unicode="&#58891;" d="M1043.418074 522.277926c26.699852 29.127111 58.254222 72.817778 58.254222 118.935704 0 26.699852-7.281778 48.545185-24.272592 65.536-31.55437 31.55437-87.381333 31.55437-150.490074 31.55437h-46.117926c-58.254222 0-106.799407 2.427259-138.353778-29.127111-16.990815-16.990815-24.272593-38.836148-24.272593-67.963259 0-65.536 58.254222-123.790222 84.954074-145.635556 9.709037-9.709037 26.699852-7.281778 33.98163 2.427259 9.709037 9.709037 7.281778 26.699852-2.427259 33.98163-41.263407 36.408889-67.963259 77.672296-67.963259 109.226667 0 24.272593 7.281778 31.55437 9.709037 33.981629 16.990815 14.563556 58.254222 14.563556 104.372148 14.563556h50.972444c50.972444 0 99.51763 0 116.508445-16.990815 0-2.427259 7.281778-9.709037 7.281777-31.55437 0-29.127111-26.699852-70.390519-70.390518-106.799408-7.281778-4.854519-9.709037-14.563556-7.281778-21.845333 2.427259-7.281778 7.281778-14.563556 14.563556-19.418074 89.808593-33.98163 184.471704-126.217481 184.471703-252.434963 0-118.935704-72.817778-162.62637-266.998518-162.626371s-266.998519 43.690667-266.998519 162.626371c0 72.817778 33.98163 145.635556 94.663111 199.035259 9.709037 9.709037 12.136296 24.272593 2.42726 33.98163-9.709037 9.709037-24.272593 12.136296-33.98163 2.427259-70.390519-63.108741-111.653926-148.062815-111.653926-235.444148 0-211.171556 213.598815-211.171556 315.543704-211.171556 101.944889 0 315.543704 0 315.543704 211.171556 2.427259 116.508444-72.817778 225.735111-182.044445 281.562074z m0 0M1009.436444 403.342222c9.709037 9.709037 9.709037 24.272593 0 33.98163-9.709037 9.709037-24.272593 9.709037-33.981629 0l-60.681482-58.254222-60.681481 58.254222c-9.709037 9.709037-24.272593 9.709037-33.98163 0-9.709037-9.709037-9.709037-24.272593 0-33.98163l67.963259-65.536v-14.563555h-48.545185c-14.563556 0-24.272593-9.709037-24.272592-24.272593 0-14.563556 9.709037-24.272593 24.272592-24.272593h48.545185v-24.272592h-48.545185c-14.563556 0-24.272593-9.709037-24.272592-24.272593 0-14.563556 9.709037-24.272593 24.272592-24.272592h48.545185v-50.972445c0-14.563556 9.709037-24.272593 24.272593-24.272592 14.563556 0 24.272593 9.709037 24.272593 24.272592v50.972445h48.545185c14.563556 0 24.272593 9.709037 24.272592 24.272592 0 14.563556-9.709037 24.272593-24.272592 24.272593h-48.545185v24.272592h48.545185c14.563556 0 24.272593 9.709037 24.272592 24.272593 0 14.563556-9.709037 24.272593-24.272592 24.272593h-48.545185v9.709037l72.817777 70.390518z m0 0"  horiz-adv-x="1820" />

    
    <glyph glyph-name="zhangdan" unicode="&#59036;" d="M512 341.333333a11.459048 11.459048 0 0 0-8.533333 3.657143l-59.245715 59.245714c-4.87619 4.87619-4.87619 12.434286 0 17.310477s12.434286 4.87619 17.310477 0L512 370.834286l50.468571 50.468571c4.87619 4.87619 12.434286 4.87619 17.310477 0s4.87619-12.434286 0-17.310476l-59.245715-59.245714a12.190476 12.190476 0 0 0-8.533333-3.413334zM590.994286 311.100952h-158.232381c-6.826667 0-12.190476 5.36381-12.190476 12.190477s5.36381 12.190476 12.190476 12.190476h158.232381c6.826667 0 12.190476-5.36381 12.190476-12.190476s-5.36381-12.190476-12.190476-12.190477zM590.994286 250.148571h-158.232381c-6.826667 0-12.190476 5.36381-12.190476 12.190477s5.36381 12.190476 12.190476 12.190476h158.232381c6.826667 0 12.190476-5.36381 12.190476-12.190476s-5.36381-12.190476-12.190476-12.190477zM512 186.270476c-6.826667 0-12.190476 5.36381-12.190476 12.190476v155.062858c0 6.826667 5.36381 12.190476 12.190476 12.190476s12.190476-5.36381 12.190476-12.190476v-155.062858c0-6.826667-5.36381-12.190476-12.190476-12.190476zM902.095238 607.573333H121.904762c-6.826667 0-12.190476 5.36381-12.190476 12.190477s5.36381 12.190476 12.190476 12.190476h780.190476c6.826667 0 12.190476-5.36381 12.190476-12.190476s-5.36381-12.190476-12.190476-12.190477zM512 99.230476c-119.710476 0-217.234286 97.52381-217.234286 217.234286s97.52381 217.234286 217.234286 217.234286 217.234286-97.52381 217.234286-217.234286c0-58.026667-22.674286-112.64-63.634286-153.6-3.413333-3.413333-8.777143-4.632381-13.165714-2.681905s-7.558095 6.339048-7.558096 11.215238V240.152381c0 6.826667 5.36381 12.190476 12.190477 12.190476s12.190476-5.36381 12.190476-12.190476v-35.596191a191.585524 191.585524 0 0 1 35.59619 111.908572c0 106.300952-86.552381 192.853333-192.853333 192.853333s-192.853333-86.552381-192.853333-192.853333 86.552381-192.853333 192.853333-192.853333c6.826667 0 12.190476-5.36381 12.190476-12.190477s-5.36381-12.190476-12.190476-12.190476zM360.838095 685.592381c-26.819048 0-48.761905 21.942857-48.761905 48.761905v48.761904c0 26.819048 21.942857 48.761905 48.761905 48.761905s48.761905-21.942857 48.761905-48.761905v-48.761904c0-27.062857-21.699048-48.761905-48.761905-48.761905z m0 121.904762c-13.409524 0-24.380952-10.971429-24.380952-24.380953v-48.761904c0-13.409524 10.971429-24.380952 24.380952-24.380953s24.380952 10.971429 24.380953 24.380953v48.761904c0 13.409524-10.727619 24.380952-24.380953 24.380953zM657.554286 685.592381c-26.819048 0-48.761905 21.942857-48.761905 48.761905v48.761904c0 26.819048 21.942857 48.761905 48.761905 48.761905s48.761905-21.942857 48.761904-48.761905v-48.761904a48.761905 48.761905 0 0 0-48.761904-48.761905z m0 121.904762c-13.409524 0-24.380952-10.971429-24.380953-24.380953v-48.761904c0-13.409524 10.971429-24.380952 24.380953-24.380953s24.380952 10.971429 24.380952 24.380953v48.761904c0 13.409524-10.971429 24.380952-24.380952 24.380953zM572.220952 743.619048H446.171429c-6.826667 0-12.190476 5.36381-12.190477 12.190476s5.36381 12.190476 12.190477 12.190476h126.049523c6.826667 0 12.190476-5.36381 12.190477-12.190476s-5.36381-12.190476-12.190477-12.190476zM853.333333-15.11619H170.666667a60.952381 60.952381 0 0 0-60.952381 60.95238V707.047619A60.952381 60.952381 0 0 0 170.666667 768h104.838095c6.826667 0 12.190476-5.36381 12.190476-12.190476s-5.36381-12.190476-12.190476-12.190476H170.666667c-20.23619 0-36.571429-16.335238-36.571429-36.571429v-660.967619c0-20.23619 16.335238-36.571429 36.571429-36.571429h682.666666c20.23619 0 36.571429 16.335238 36.571429 36.571429V707.047619c0 20.23619-16.335238 36.571429-36.571429 36.571429h-110.445714c-6.826667 0-12.190476 5.36381-12.190476 12.190476s5.36381 12.190476 12.190476 12.190476H853.333333a60.952381 60.952381 0 0 0 60.952381-60.952381v-660.967619c0-33.889524-27.306667-61.19619-60.952381-61.19619z"  horiz-adv-x="1024" />

    
    <glyph glyph-name="lunkuodasan-" unicode="&#58908;" d="M593.454545-65.163636h-30.254545L256 151.272727a39.563636 39.563636 0 0 1-23.272727 2.327273H132.654545c-58.181818 0-109.381818 62.836364-109.381818 116.363636v232.727273c0 58.181818 55.854545 93.090909 109.381818 93.090909h93.09091a65.163636 65.163636 0 0 1 30.254545 13.963637l307.2 221.090909h4.654545a104.727273 104.727273 0 0 0 90.763637-18.618182A104.727273 104.727273 0 0 0 698.181818 728.436364v-688.872728a104.727273 104.727273 0 0 0-104.727273-104.727272z m-9.30909 46.545454a58.181818 58.181818 0 0 1 69.818181 58.181818V728.436364a58.181818 58.181818 0 0 1-23.272727 46.545454 58.181818 58.181818 0 0 1-46.545454 11.636364l-302.545455-216.436364a102.4 102.4 0 0 0-58.181818-23.272727h-93.090909c-30.254545 0-62.836364-16.290909-62.836364-46.545455v-232.727272c0-32.581818 32.581818-69.818182 62.836364-69.818182H232.727273a76.8 76.8 0 0 0 51.2-11.636364zM889.018182 134.981818l-32.581818 32.581818c130.327273 130.327273 130.327273 304.872727 0 435.2l32.581818 32.581819c148.945455-148.945455 148.945455-351.418182 0-500.363637zM828.509091 251.345455l-32.581818 32.581818a132.654545 132.654545 0 0 1 0 200.145454l32.581818 32.581818a179.2 179.2 0 0 0 0-265.30909z"  horiz-adv-x="1024" />

    
    <glyph glyph-name="changyongtubiao-xianxingdaochu-zhuanqu-1" unicode="&#59196;" d="M257.8432 20.9408H175.104a69.9904 69.9904 0 0 0-69.8368 69.9392v368.64A69.9392 69.9392 0 0 0 175.104 529.408h99.6352a33.9968 33.9968 0 0 0 33.9456-35.2256L291.84 53.504a33.9968 33.9968 0 0 0-33.8944-32.5632zM200.6528 461.6192a27.648 27.648 0 0 1-27.5968-27.5456v-317.696a27.6992 27.6992 0 0 1 27.5968-27.5968 25.6 25.6 0 0 1 25.6 24.5248L238.5408 435.2a25.6 25.6 0 0 1-25.6 26.4704z m-25.6 0M749.1072 20.9408H398.6944a71.68 71.68 0 0 0-71.68 74.3424l14.0288 365.2608a71.68 71.68 0 0 0 71.68 68.864H430.08a10.24 10.24 0 0 1 9.5232 6.7072l54.784 153.6a116.0192 116.0192 0 0 0 224.0512-55.4496l-13.3632-93.2864a10.24 10.24 0 0 1 10.24-11.5712h101.5808a101.9392 101.9392 0 0 0 101.8368-101.1712 6.2464 6.2464 0 0 0 0-1.3824l-0.6656-6.144v-1.1264l-66.56-300.0832a7.8848 7.8848 0 0 1 0-1.536 101.9392 101.9392 0 0 0-101.7344-97.024z m-351.5392 142.1824a71.68 71.68 0 0 1 71.68-74.3424h280.0128A34.0992 34.0992 0 0 1 783.36 122.88l0.768 6.8096v1.1264l66.56 298.0352a9.6256 9.6256 0 0 1 0 3.6352 34.1504 34.1504 0 0 1-33.6896 29.1328h-179.8144a10.24 10.24 0 0 0-10.24 11.5712l24.3712 170.6496a48.0768 48.0768 0 0 1-47.7184 54.9888 48.2304 48.2304 0 0 1-45.3632-32L487.5264 468.3776a10.24 10.24 0 0 0-9.5744-6.7584 71.68 71.68 0 0 1-71.68-68.8128z m-2.8672-74.3424"  horiz-adv-x="1024" />

    
    <glyph glyph-name="changyongtubiao-xianxingdaochu-zhuanqu-" unicode="&#59241;" d="M848.5376 409.9072H229.632l211.7632 211.7632a30.72 30.72 0 1 1-43.4688 43.4688l-264.1408-264.192a26.7776 26.7776 0 0 1-3.8912-4.7616 29.1328 29.1328 0 0 1-2.6112-5.12v-0.3584a31.8464 31.8464 0 0 1-1.5872-5.12v-0.3072a34.4064 34.4064 0 0 1-0.5632-5.632 33.8432 33.8432 0 0 1 0.5632-5.632v-0.3072a30.72 30.72 0 0 1 1.5872-5.12v-0.4096a30.72 30.72 0 0 1 2.6112-5.12v-0.3584a28.16 28.16 0 0 1 3.84-4.6592l264.1408-264.192a30.72 30.72 0 1 1 43.4688 43.4176l-211.712 211.2h618.9056a30.72 30.72 0 0 1 0 61.44z"  horiz-adv-x="1024" />

    
    <glyph glyph-name="1" unicode="&#58900;" d="M618.666667-43.51999999999998h106.410666a64 64 0 0 1 64.256 63.872v385.237333a21.333333 21.333333 0 0 0 21.376 21.333334l104.533334-0.213334a24.32 24.32 0 0 1 18.773333 8.576c7.509333 9.088 5.888 21.973333-4.906667 30.08l-402.133333 340.48c-8.661333 6.485333-21.12 6.485333-28.8 0.853334l-404.181333-341.973334a20.650667 20.650667 0 0 1-8.576-16.469333c0-11.52 10.24-21.333333 23.466666-21.333333H213.333333a21.333333 21.333333 0 0 0 21.333334-21.546667v-385.066667c0-34.986667 28.885333-63.829333 64.256-63.829333H405.333333V170.66666699999996c0 58.026667 38.954667 106.666667 89.6 106.666666h34.133334c50.645333 0 89.6-48.64 89.6-106.666666v-214.186667z m-42.666667 0V170.66666699999996c0 36.266667-22.186667 64-46.933333 64h-34.133334c-24.746667 0-46.933333-27.733333-46.933333-64v-214.186667h128z m256 427.733333v-363.861333a106.666667 106.666667 0 0 0-106.922667-106.538667H298.922667A106.922667 106.922667 0 0 0 192 20.309333000000038v363.946667H108.885333c-36.309333 0-66.133333 28.416-66.133333 64 0 19.882667 9.514667 38.570667 24.661333 49.834667l404.224 341.930666a68.266667 68.266667 0 0 0 81.877334-0.768l402.176-340.522666c29.184-21.802667 34.346667-62.592 11.306666-90.581334a66.986667 66.986667 0 0 0-51.797333-24.106666l-83.2 0.170666z"  horiz-adv-x="1024" />
>>>>>>> cq

    


  </font>
</defs>
</svg>
